  0
SECTION
  2
HEADER
  9
$ACADVER
  1
AC1009
  9
$INSBASE
 10
0.0
 20
0.0
 30
0.0
  9
$EXTMIN
 10
0.0
 20
0.0
 30
0.0
  9
$EXTMAX
 10
0.0
 20
0.0
 30
0.0
  0
ENDSEC
  0
SECTION
  2
TABLES
  0
TABLE
  2
VPORT
 70
0
  0
ENDTAB
  0
TABLE
  2
LTYPE
 70
1
  0
LTYPE
  2
CONTINUOUS
 70
0
  3
Solid line
 72
65
 73
0
 40
0.0
  0
ENDTAB
  0
TABLE
  2
LAYER
 70
1
  0
LAYER
  2
0
 70
64
 62
7
  6
continuous
  0
ENDTAB
  0
TABLE
  2
STYLE
 70
1
  0
STYLE
  2
STANDARD
 70
0
 40
0
 41
1.0
 50
0.0
 71
0
 42
1
 3
ARIAL.TTF
 4

  0
ENDTAB
  0
TABLE
  2
VIEW
 70
0
  0
ENDTAB
  0
ENDSEC
  0
SECTION
  2
BLOCKS
  0
BLOCK
  8
0
  2
SPHERE002
 70
0
 10
0.0
 20
0.0
 30
0.0
  3
SPHERE002
  0
POLYLINE
  8
0
 62
0
 70
0
 66
1
 10
0.0
 20
0.0
 30
0.0
  0
VERTEX
  8
0
 10
50.0
 20
45.0
 30
0.0
  0
VERTEX
  8
0
 10
45.0
 20
45.0
 30
0.0
  0
SEQEND
  8
0
  0
CIRCLE
  8
0
 62
0
 10
45.0
 20
45.0
 30
0.0
 40
5.0
  0
ENDBLK
  0
BLOCK
  8
0
  2
SPHERE
 70
0
 10
0.0
 20
0.0
 30
0.0
  3
SPHERE
  0
POLYLINE
  8
0
 62
0
 70
0
 66
1
 10
0.0
 20
0.0
 30
0.0
  0
VERTEX
  8
0
 10
520.0
 20
45.0
 30
0.0
  0
VERTEX
  8
0
 10
515.0
 20
45.0
 30
0.0
  0
SEQEND
  8
0
  0
CIRCLE
  8
0
 62
0
 10
515.0
 20
45.0
 30
0.0
 40
5.0
  0
ENDBLK
  0
BLOCK
  8
0
  2
SPHERE001
 70
0
 10
0.0
 20
0.0
 30
0.0
  3
SPHERE001
  0
POLYLINE
  8
0
 62
0
 70
0
 66
1
 10
0.0
 20
0.0
 30
0.0
  0
VERTEX
  8
0
 10
520.0
 20
395.0
 30
0.0
  0
VERTEX
  8
0
 10
515.0
 20
395.0
 30
0.0
  0
SEQEND
  8
0
  0
CIRCLE
  8
0
 62
0
 10
515.0
 20
395.0
 30
0.0
 40
5.0
  0
ENDBLK
  0
BLOCK
  8
0
  2
SPHERE003
 70
0
 10
0.0
 20
0.0
 30
0.0
  3
SPHERE003
  0
POLYLINE
  8
0
 62
0
 70
0
 66
1
 10
0.0
 20
0.0
 30
0.0
  0
VERTEX
  8
0
 10
50.0
 20
395.0
 30
0.0
  0
VERTEX
  8
0
 10
45.0
 20
395.0
 30
0.0
  0
SEQEND
  8
0
  0
CIRCLE
  8
0
 62
0
 10
45.0
 20
395.0
 30
0.0
 40
5.0
  0
ENDBLK
  0
BLOCK
  8
0
  2
FUSION007
 70
0
 10
0.0
 20
0.0
 30
0.0
  3
FUSION007
  0
POLYLINE
  8
0
 62
0
 70
0
 66
1
 10
0.0
 20
0.0
 30
0.0
  0
VERTEX
  8
0
 10
495.0
 20
224.0
 30
0.0
  0
VERTEX
  8
0
 10
495.0
 20
220.0
 30
0.0
  0
SEQEND
  8
0
  0
POLYLINE
  8
0
 62
0
 70
0
 66
1
 10
0.0
 20
0.0
 30
0.0
  0
VERTEX
  8
0
 10
65.0
 20
220.0
 30
0.0
  0
VERTEX
  8
0
 10
65.0
 20
216.0
 30
0.0
  0
SEQEND
  8
0
  0
POLYLINE
  8
0
 62
0
 70
0
 66
1
 10
0.0
 20
0.0
 30
0.0
  0
VERTEX
  8
0
 10
65.0
 20
224.0
 30
0.0
  0
VERTEX
  8
0
 10
65.0
 20
220.0
 30
0.0
  0
SEQEND
  8
0
  0
POLYLINE
  8
0
 62
0
 70
0
 66
1
 10
0.0
 20
0.0
 30
0.0
  0
VERTEX
  8
0
 10
495.0
 20
220.0
 30
0.0
  0
VERTEX
  8
0
 10
495.0
 20
216.0
 30
0.0
  0
SEQEND
  8
0
  0
POLYLINE
  8
0
 62
0
 70
0
 66
1
 10
0.0
 20
0.0
 30
0.0
  0
VERTEX
  8
0
 10
499.0
 20
220.0
 30
0.0
  0
VERTEX
  8
0
 10
495.0
 20
220.0
 30
0.0
  0
SEQEND
  8
0
  0
ARC
  8
0
 62
0
 10
495.0
 20
220.0
 30
0.0
 40
4.0
 50
-0.0
 51
90.0
  0
LINE
  8
0
 62
0
 10
65.0
 20
216.0
 30
0.0
 11
495.0
 21
216.0
 31
0.0
  0
LINE
  8
0
 62
0
 10
65.0
 20
224.0
 30
0.0
 11
495.0
 21
224.0
 31
0.0
  0
ARC
  8
0
 62
0
 10
495.0
 20
220.0
 30
0.0
 40
4.0
 50
-90.0
 51
-0.0
  0
ARC
  8
0
 62
0
 10
65.0
 20
220.0
 30
0.0
 40
4.0
 50
90.0
 51
-90.0
  0
ENDBLK
  0
BLOCK
  8
0
  2
FUSION010
 70
0
 10
0.0
 20
0.0
 30
0.0
  3
FUSION010
  0
POLYLINE
  8
0
 62
0
 70
0
 66
1
 10
0.0
 20
0.0
 30
0.0
  0
VERTEX
  8
0
 10
495.0
 20
104.0
 30
0.0
  0
VERTEX
  8
0
 10
495.0
 20
100.0
 30
0.0
  0
SEQEND
  8
0
  0
POLYLINE
  8
0
 62
0
 70
0
 66
1
 10
0.0
 20
0.0
 30
0.0
  0
VERTEX
  8
0
 10
65.0
 20
100.0
 30
0.0
  0
VERTEX
  8
0
 10
65.0
 20
96.0
 30
0.0
  0
SEQEND
  8
0
  0
POLYLINE
  8
0
 62
0
 70
0
 66
1
 10
0.0
 20
0.0
 30
0.0
  0
VERTEX
  8
0
 10
65.0
 20
104.0
 30
0.0
  0
VERTEX
  8
0
 10
65.0
 20
100.0
 30
0.0
  0
SEQEND
  8
0
  0
POLYLINE
  8
0
 62
0
 70
0
 66
1
 10
0.0
 20
0.0
 30
0.0
  0
VERTEX
  8
0
 10
495.0
 20
100.0
 30
0.0
  0
VERTEX
  8
0
 10
495.0
 20
96.0
 30
0.0
  0
SEQEND
  8
0
  0
POLYLINE
  8
0
 62
0
 70
0
 66
1
 10
0.0
 20
0.0
 30
0.0
  0
VERTEX
  8
0
 10
499.0
 20
100.0
 30
0.0
  0
VERTEX
  8
0
 10
495.0
 20
100.0
 30
0.0
  0
SEQEND
  8
0
  0
ARC
  8
0
 62
0
 10
495.0
 20
100.0
 30
0.0
 40
4.0
 50
-0.0
 51
90.0
  0
LINE
  8
0
 62
0
 10
65.0
 20
96.0
 30
0.0
 11
495.0
 21
96.0
 31
0.0
  0
LINE
  8
0
 62
0
 10
65.0
 20
104.0
 30
0.0
 11
495.0
 21
104.0
 31
0.0
  0
ARC
  8
0
 62
0
 10
495.0
 20
100.0
 30
0.0
 40
4.0
 50
-90.0
 51
-0.0
  0
ARC
  8
0
 62
0
 10
65.0
 20
100.0
 30
0.0
 40
4.0
 50
90.0
 51
-90.0
  0
ENDBLK
  0
BLOCK
  8
0
  2
FUSION005
 70
0
 10
0.0
 20
0.0
 30
0.0
  3
FUSION005
  0
POLYLINE
  8
0
 62
0
 70
0
 66
1
 10
0.0
 20
0.0
 30
0.0
  0
VERTEX
  8
0
 10
495.0
 20
304.0
 30
0.0
  0
VERTEX
  8
0
 10
495.0
 20
300.0
 30
0.0
  0
SEQEND
  8
0
  0
POLYLINE
  8
0
 62
0
 70
0
 66
1
 10
0.0
 20
0.0
 30
0.0
  0
VERTEX
  8
0
 10
65.0
 20
300.0
 30
0.0
  0
VERTEX
  8
0
 10
65.0
 20
296.0
 30
0.0
  0
SEQEND
  8
0
  0
POLYLINE
  8
0
 62
0
 70
0
 66
1
 10
0.0
 20
0.0
 30
0.0
  0
VERTEX
  8
0
 10
65.0
 20
304.0
 30
0.0
  0
VERTEX
  8
0
 10
65.0
 20
300.0
 30
0.0
  0
SEQEND
  8
0
  0
POLYLINE
  8
0
 62
0
 70
0
 66
1
 10
0.0
 20
0.0
 30
0.0
  0
VERTEX
  8
0
 10
495.0
 20
300.0
 30
0.0
  0
VERTEX
  8
0
 10
495.0
 20
296.0
 30
0.0
  0
SEQEND
  8
0
  0
POLYLINE
  8
0
 62
0
 70
0
 66
1
 10
0.0
 20
0.0
 30
0.0
  0
VERTEX
  8
0
 10
499.0
 20
300.0
 30
0.0
  0
VERTEX
  8
0
 10
495.0
 20
300.0
 30
0.0
  0
SEQEND
  8
0
  0
ARC
  8
0
 62
0
 10
495.0
 20
300.0
 30
0.0
 40
4.0
 50
-0.0
 51
90.0
  0
LINE
  8
0
 62
0
 10
65.0
 20
296.0
 30
0.0
 11
495.0
 21
296.0
 31
0.0
  0
LINE
  8
0
 62
0
 10
65.0
 20
304.0
 30
0.0
 11
495.0
 21
304.0
 31
0.0
  0
ARC
  8
0
 62
0
 10
495.0
 20
300.0
 30
0.0
 40
4.0
 50
-90.0
 51
-0.0
  0
ARC
  8
0
 62
0
 10
65.0
 20
300.0
 30
0.0
 40
4.0
 50
90.0
 51
-90.0
  0
ENDBLK
  0
BLOCK
  8
0
  2
FUSION012
 70
0
 10
0.0
 20
0.0
 30
0.0
  3
FUSION012
  0
POLYLINE
  8
0
 62
0
 70
0
 66
1
 10
0.0
 20
0.0
 30
0.0
  0
VERTEX
  8
0
 10
495.0
 20
64.0
 30
0.0
  0
VERTEX
  8
0
 10
495.0
 20
60.0
 30
0.0
  0
SEQEND
  8
0
  0
POLYLINE
  8
0
 62
0
 70
0
 66
1
 10
0.0
 20
0.0
 30
0.0
  0
VERTEX
  8
0
 10
65.0
 20
60.0
 30
0.0
  0
VERTEX
  8
0
 10
65.0
 20
56.0
 30
0.0
  0
SEQEND
  8
0
  0
POLYLINE
  8
0
 62
0
 70
0
 66
1
 10
0.0
 20
0.0
 30
0.0
  0
VERTEX
  8
0
 10
65.0
 20
64.0
 30
0.0
  0
VERTEX
  8
0
 10
65.0
 20
60.0
 30
0.0
  0
SEQEND
  8
0
  0
POLYLINE
  8
0
 62
0
 70
0
 66
1
 10
0.0
 20
0.0
 30
0.0
  0
VERTEX
  8
0
 10
495.0
 20
60.0
 30
0.0
  0
VERTEX
  8
0
 10
495.0
 20
56.0
 30
0.0
  0
SEQEND
  8
0
  0
POLYLINE
  8
0
 62
0
 70
0
 66
1
 10
0.0
 20
0.0
 30
0.0
  0
VERTEX
  8
0
 10
495.0
 20
104.0
 30
0.0
  0
VERTEX
  8
0
 10
495.0
 20
100.0
 30
0.0
  0
SEQEND
  8
0
  0
POLYLINE
  8
0
 62
0
 70
0
 66
1
 10
0.0
 20
0.0
 30
0.0
  0
VERTEX
  8
0
 10
65.0
 20
100.0
 30
0.0
  0
VERTEX
  8
0
 10
65.0
 20
96.0
 30
0.0
  0
SEQEND
  8
0
  0
POLYLINE
  8
0
 62
0
 70
0
 66
1
 10
0.0
 20
0.0
 30
0.0
  0
VERTEX
  8
0
 10
65.0
 20
104.0
 30
0.0
  0
VERTEX
  8
0
 10
65.0
 20
100.0
 30
0.0
  0
SEQEND
  8
0
  0
POLYLINE
  8
0
 62
0
 70
0
 66
1
 10
0.0
 20
0.0
 30
0.0
  0
VERTEX
  8
0
 10
495.0
 20
100.0
 30
0.0
  0
VERTEX
  8
0
 10
495.0
 20
96.0
 30
0.0
  0
SEQEND
  8
0
  0
POLYLINE
  8
0
 62
0
 70
0
 66
1
 10
0.0
 20
0.0
 30
0.0
  0
VERTEX
  8
0
 10
495.0
 20
144.0
 30
0.0
  0
VERTEX
  8
0
 10
495.0
 20
140.0
 30
0.0
  0
SEQEND
  8
0
  0
POLYLINE
  8
0
 62
0
 70
0
 66
1
 10
0.0
 20
0.0
 30
0.0
  0
VERTEX
  8
0
 10
65.0
 20
140.0
 30
0.0
  0
VERTEX
  8
0
 10
65.0
 20
136.0
 30
0.0
  0
SEQEND
  8
0
  0
POLYLINE
  8
0
 62
0
 70
0
 66
1
 10
0.0
 20
0.0
 30
0.0
  0
VERTEX
  8
0
 10
65.0
 20
144.0
 30
0.0
  0
VERTEX
  8
0
 10
65.0
 20
140.0
 30
0.0
  0
SEQEND
  8
0
  0
POLYLINE
  8
0
 62
0
 70
0
 66
1
 10
0.0
 20
0.0
 30
0.0
  0
VERTEX
  8
0
 10
495.0
 20
140.0
 30
0.0
  0
VERTEX
  8
0
 10
495.0
 20
136.0
 30
0.0
  0
SEQEND
  8
0
  0
POLYLINE
  8
0
 62
0
 70
0
 66
1
 10
0.0
 20
0.0
 30
0.0
  0
VERTEX
  8
0
 10
495.0
 20
184.0
 30
0.0
  0
VERTEX
  8
0
 10
495.0
 20
180.0
 30
0.0
  0
SEQEND
  8
0
  0
POLYLINE
  8
0
 62
0
 70
0
 66
1
 10
0.0
 20
0.0
 30
0.0
  0
VERTEX
  8
0
 10
65.0
 20
180.0
 30
0.0
  0
VERTEX
  8
0
 10
65.0
 20
176.0
 30
0.0
  0
SEQEND
  8
0
  0
POLYLINE
  8
0
 62
0
 70
0
 66
1
 10
0.0
 20
0.0
 30
0.0
  0
VERTEX
  8
0
 10
65.0
 20
184.0
 30
0.0
  0
VERTEX
  8
0
 10
65.0
 20
180.0
 30
0.0
  0
SEQEND
  8
0
  0
POLYLINE
  8
0
 62
0
 70
0
 66
1
 10
0.0
 20
0.0
 30
0.0
  0
VERTEX
  8
0
 10
495.0
 20
180.0
 30
0.0
  0
VERTEX
  8
0
 10
495.0
 20
176.0
 30
0.0
  0
SEQEND
  8
0
  0
POLYLINE
  8
0
 62
0
 70
0
 66
1
 10
0.0
 20
0.0
 30
0.0
  0
VERTEX
  8
0
 10
495.0
 20
224.0
 30
0.0
  0
VERTEX
  8
0
 10
495.0
 20
220.0
 30
0.0
  0
SEQEND
  8
0
  0
POLYLINE
  8
0
 62
0
 70
0
 66
1
 10
0.0
 20
0.0
 30
0.0
  0
VERTEX
  8
0
 10
65.0
 20
220.0
 30
0.0
  0
VERTEX
  8
0
 10
65.0
 20
216.0
 30
0.0
  0
SEQEND
  8
0
  0
POLYLINE
  8
0
 62
0
 70
0
 66
1
 10
0.0
 20
0.0
 30
0.0
  0
VERTEX
  8
0
 10
65.0
 20
224.0
 30
0.0
  0
VERTEX
  8
0
 10
65.0
 20
220.0
 30
0.0
  0
SEQEND
  8
0
  0
POLYLINE
  8
0
 62
0
 70
0
 66
1
 10
0.0
 20
0.0
 30
0.0
  0
VERTEX
  8
0
 10
495.0
 20
220.0
 30
0.0
  0
VERTEX
  8
0
 10
495.0
 20
216.0
 30
0.0
  0
SEQEND
  8
0
  0
POLYLINE
  8
0
 62
0
 70
0
 66
1
 10
0.0
 20
0.0
 30
0.0
  0
VERTEX
  8
0
 10
495.0
 20
264.0
 30
0.0
  0
VERTEX
  8
0
 10
495.0
 20
260.0
 30
0.0
  0
SEQEND
  8
0
  0
POLYLINE
  8
0
 62
0
 70
0
 66
1
 10
0.0
 20
0.0
 30
0.0
  0
VERTEX
  8
0
 10
65.0
 20
260.0
 30
0.0
  0
VERTEX
  8
0
 10
65.0
 20
256.0
 30
0.0
  0
SEQEND
  8
0
  0
POLYLINE
  8
0
 62
0
 70
0
 66
1
 10
0.0
 20
0.0
 30
0.0
  0
VERTEX
  8
0
 10
65.0
 20
264.0
 30
0.0
  0
VERTEX
  8
0
 10
65.0
 20
260.0
 30
0.0
  0
SEQEND
  8
0
  0
POLYLINE
  8
0
 62
0
 70
0
 66
1
 10
0.0
 20
0.0
 30
0.0
  0
VERTEX
  8
0
 10
495.0
 20
260.0
 30
0.0
  0
VERTEX
  8
0
 10
495.0
 20
256.0
 30
0.0
  0
SEQEND
  8
0
  0
POLYLINE
  8
0
 62
0
 70
0
 66
1
 10
0.0
 20
0.0
 30
0.0
  0
VERTEX
  8
0
 10
495.0
 20
304.0
 30
0.0
  0
VERTEX
  8
0
 10
495.0
 20
300.0
 30
0.0
  0
SEQEND
  8
0
  0
POLYLINE
  8
0
 62
0
 70
0
 66
1
 10
0.0
 20
0.0
 30
0.0
  0
VERTEX
  8
0
 10
65.0
 20
300.0
 30
0.0
  0
VERTEX
  8
0
 10
65.0
 20
296.0
 30
0.0
  0
SEQEND
  8
0
  0
POLYLINE
  8
0
 62
0
 70
0
 66
1
 10
0.0
 20
0.0
 30
0.0
  0
VERTEX
  8
0
 10
65.0
 20
304.0
 30
0.0
  0
VERTEX
  8
0
 10
65.0
 20
300.0
 30
0.0
  0
SEQEND
  8
0
  0
POLYLINE
  8
0
 62
0
 70
0
 66
1
 10
0.0
 20
0.0
 30
0.0
  0
VERTEX
  8
0
 10
495.0
 20
300.0
 30
0.0
  0
VERTEX
  8
0
 10
495.0
 20
296.0
 30
0.0
  0
SEQEND
  8
0
  0
POLYLINE
  8
0
 62
0
 70
0
 66
1
 10
0.0
 20
0.0
 30
0.0
  0
VERTEX
  8
0
 10
495.0
 20
344.0
 30
0.0
  0
VERTEX
  8
0
 10
495.0
 20
340.0
 30
0.0
  0
SEQEND
  8
0
  0
POLYLINE
  8
0
 62
0
 70
0
 66
1
 10
0.0
 20
0.0
 30
0.0
  0
VERTEX
  8
0
 10
65.0
 20
340.0
 30
0.0
  0
VERTEX
  8
0
 10
65.0
 20
336.0
 30
0.0
  0
SEQEND
  8
0
  0
POLYLINE
  8
0
 62
0
 70
0
 66
1
 10
0.0
 20
0.0
 30
0.0
  0
VERTEX
  8
0
 10
65.0
 20
344.0
 30
0.0
  0
VERTEX
  8
0
 10
65.0
 20
340.0
 30
0.0
  0
SEQEND
  8
0
  0
POLYLINE
  8
0
 62
0
 70
0
 66
1
 10
0.0
 20
0.0
 30
0.0
  0
VERTEX
  8
0
 10
495.0
 20
340.0
 30
0.0
  0
VERTEX
  8
0
 10
495.0
 20
336.0
 30
0.0
  0
SEQEND
  8
0
  0
POLYLINE
  8
0
 62
0
 70
0
 66
1
 10
0.0
 20
0.0
 30
0.0
  0
VERTEX
  8
0
 10
65.0
 20
380.0
 30
0.0
  0
VERTEX
  8
0
 10
65.0
 20
376.0
 30
0.0
  0
SEQEND
  8
0
  0
POLYLINE
  8
0
 62
0
 70
0
 66
1
 10
0.0
 20
0.0
 30
0.0
  0
VERTEX
  8
0
 10
65.0
 20
384.0
 30
0.0
  0
VERTEX
  8
0
 10
65.0
 20
380.0
 30
0.0
  0
SEQEND
  8
0
  0
POLYLINE
  8
0
 62
0
 70
0
 66
1
 10
0.0
 20
0.0
 30
0.0
  0
VERTEX
  8
0
 10
495.0
 20
384.0
 30
0.0
  0
VERTEX
  8
0
 10
495.0
 20
380.0
 30
0.0
  0
SEQEND
  8
0
  0
POLYLINE
  8
0
 62
0
 70
0
 66
1
 10
0.0
 20
0.0
 30
0.0
  0
VERTEX
  8
0
 10
495.0
 20
380.0
 30
0.0
  0
VERTEX
  8
0
 10
495.0
 20
376.0
 30
0.0
  0
SEQEND
  8
0
  0
POLYLINE
  8
0
 62
0
 70
0
 66
1
 10
0.0
 20
0.0
 30
0.0
  0
VERTEX
  8
0
 10
499.0
 20
60.0
 30
0.0
  0
VERTEX
  8
0
 10
495.0
 20
60.0
 30
0.0
  0
SEQEND
  8
0
  0
POLYLINE
  8
0
 62
0
 70
0
 66
1
 10
0.0
 20
0.0
 30
0.0
  0
VERTEX
  8
0
 10
499.0
 20
100.0
 30
0.0
  0
VERTEX
  8
0
 10
495.0
 20
100.0
 30
0.0
  0
SEQEND
  8
0
  0
POLYLINE
  8
0
 62
0
 70
0
 66
1
 10
0.0
 20
0.0
 30
0.0
  0
VERTEX
  8
0
 10
499.0
 20
140.0
 30
0.0
  0
VERTEX
  8
0
 10
495.0
 20
140.0
 30
0.0
  0
SEQEND
  8
0
  0
POLYLINE
  8
0
 62
0
 70
0
 66
1
 10
0.0
 20
0.0
 30
0.0
  0
VERTEX
  8
0
 10
499.0
 20
180.0
 30
0.0
  0
VERTEX
  8
0
 10
495.0
 20
180.0
 30
0.0
  0
SEQEND
  8
0
  0
POLYLINE
  8
0
 62
0
 70
0
 66
1
 10
0.0
 20
0.0
 30
0.0
  0
VERTEX
  8
0
 10
499.0
 20
220.0
 30
0.0
  0
VERTEX
  8
0
 10
495.0
 20
220.0
 30
0.0
  0
SEQEND
  8
0
  0
POLYLINE
  8
0
 62
0
 70
0
 66
1
 10
0.0
 20
0.0
 30
0.0
  0
VERTEX
  8
0
 10
499.0
 20
260.0
 30
0.0
  0
VERTEX
  8
0
 10
495.0
 20
260.0
 30
0.0
  0
SEQEND
  8
0
  0
POLYLINE
  8
0
 62
0
 70
0
 66
1
 10
0.0
 20
0.0
 30
0.0
  0
VERTEX
  8
0
 10
499.0
 20
300.0
 30
0.0
  0
VERTEX
  8
0
 10
495.0
 20
300.0
 30
0.0
  0
SEQEND
  8
0
  0
POLYLINE
  8
0
 62
0
 70
0
 66
1
 10
0.0
 20
0.0
 30
0.0
  0
VERTEX
  8
0
 10
499.0
 20
340.0
 30
0.0
  0
VERTEX
  8
0
 10
495.0
 20
340.0
 30
0.0
  0
SEQEND
  8
0
  0
POLYLINE
  8
0
 62
0
 70
0
 66
1
 10
0.0
 20
0.0
 30
0.0
  0
VERTEX
  8
0
 10
499.0
 20
380.0
 30
0.0
  0
VERTEX
  8
0
 10
495.0
 20
380.0
 30
0.0
  0
SEQEND
  8
0
  0
ARC
  8
0
 62
0
 10
495.0
 20
60.0
 30
0.0
 40
4.0
 50
-0.0
 51
90.0
  0
LINE
  8
0
 62
0
 10
65.0
 20
56.0
 30
0.0
 11
495.0
 21
56.0
 31
0.0
  0
LINE
  8
0
 62
0
 10
65.0
 20
64.0
 30
0.0
 11
495.0
 21
64.0
 31
0.0
  0
ARC
  8
0
 62
0
 10
495.0
 20
60.0
 30
0.0
 40
4.0
 50
-90.0
 51
-0.0
  0
ARC
  8
0
 62
0
 10
65.0
 20
60.0
 30
0.0
 40
4.0
 50
90.0
 51
-90.0
  0
ARC
  8
0
 62
0
 10
495.0
 20
100.0
 30
0.0
 40
4.0
 50
-0.0
 51
90.0
  0
LINE
  8
0
 62
0
 10
65.0
 20
96.0
 30
0.0
 11
495.0
 21
96.0
 31
0.0
  0
LINE
  8
0
 62
0
 10
65.0
 20
104.0
 30
0.0
 11
495.0
 21
104.0
 31
0.0
  0
ARC
  8
0
 62
0
 10
495.0
 20
100.0
 30
0.0
 40
4.0
 50
-90.0
 51
-0.0
  0
ARC
  8
0
 62
0
 10
65.0
 20
100.0
 30
0.0
 40
4.0
 50
90.0
 51
-90.0
  0
ARC
  8
0
 62
0
 10
495.0
 20
140.0
 30
0.0
 40
4.0
 50
-0.0
 51
90.0
  0
LINE
  8
0
 62
0
 10
65.0
 20
136.0
 30
0.0
 11
495.0
 21
136.0
 31
0.0
  0
LINE
  8
0
 62
0
 10
65.0
 20
144.0
 30
0.0
 11
495.0
 21
144.0
 31
0.0
  0
ARC
  8
0
 62
0
 10
495.0
 20
140.0
 30
0.0
 40
4.0
 50
-90.0
 51
-0.0
  0
ARC
  8
0
 62
0
 10
65.0
 20
140.0
 30
0.0
 40
4.0
 50
90.0
 51
-90.0
  0
ARC
  8
0
 62
0
 10
495.0
 20
180.0
 30
0.0
 40
4.0
 50
-0.0
 51
90.0
  0
LINE
  8
0
 62
0
 10
65.0
 20
176.0
 30
0.0
 11
495.0
 21
176.0
 31
0.0
  0
LINE
  8
0
 62
0
 10
65.0
 20
184.0
 30
0.0
 11
495.0
 21
184.0
 31
0.0
  0
ARC
  8
0
 62
0
 10
495.0
 20
180.0
 30
0.0
 40
4.0
 50
-90.0
 51
-0.0
  0
ARC
  8
0
 62
0
 10
65.0
 20
180.0
 30
0.0
 40
4.0
 50
90.0
 51
-90.0
  0
ARC
  8
0
 62
0
 10
495.0
 20
220.0
 30
0.0
 40
4.0
 50
-0.0
 51
90.0
  0
LINE
  8
0
 62
0
 10
65.0
 20
216.0
 30
0.0
 11
495.0
 21
216.0
 31
0.0
  0
LINE
  8
0
 62
0
 10
65.0
 20
224.0
 30
0.0
 11
495.0
 21
224.0
 31
0.0
  0
ARC
  8
0
 62
0
 10
495.0
 20
220.0
 30
0.0
 40
4.0
 50
-90.0
 51
-0.0
  0
ARC
  8
0
 62
0
 10
65.0
 20
220.0
 30
0.0
 40
4.0
 50
90.0
 51
-90.0
  0
ARC
  8
0
 62
0
 10
495.0
 20
260.0
 30
0.0
 40
4.0
 50
-0.0
 51
90.0
  0
LINE
  8
0
 62
0
 10
65.0
 20
256.0
 30
0.0
 11
495.0
 21
256.0
 31
0.0
  0
LINE
  8
0
 62
0
 10
65.0
 20
264.0
 30
0.0
 11
495.0
 21
264.0
 31
0.0
  0
ARC
  8
0
 62
0
 10
495.0
 20
260.0
 30
0.0
 40
4.0
 50
-90.0
 51
-0.0
  0
ARC
  8
0
 62
0
 10
65.0
 20
260.0
 30
0.0
 40
4.0
 50
90.0
 51
-90.0
  0
ARC
  8
0
 62
0
 10
495.0
 20
300.0
 30
0.0
 40
4.0
 50
-0.0
 51
90.0
  0
LINE
  8
0
 62
0
 10
65.0
 20
296.0
 30
0.0
 11
495.0
 21
296.0
 31
0.0
  0
LINE
  8
0
 62
0
 10
65.0
 20
304.0
 30
0.0
 11
495.0
 21
304.0
 31
0.0
  0
ARC
  8
0
 62
0
 10
495.0
 20
300.0
 30
0.0
 40
4.0
 50
-90.0
 51
-0.0
  0
ARC
  8
0
 62
0
 10
65.0
 20
300.0
 30
0.0
 40
4.0
 50
90.0
 51
-90.0
  0
ARC
  8
0
 62
0
 10
495.0
 20
340.0
 30
0.0
 40
4.0
 50
-0.0
 51
90.0
  0
LINE
  8
0
 62
0
 10
65.0
 20
336.0
 30
0.0
 11
495.0
 21
336.0
 31
0.0
  0
LINE
  8
0
 62
0
 10
65.0
 20
344.0
 30
0.0
 11
495.0
 21
344.0
 31
0.0
  0
ARC
  8
0
 62
0
 10
495.0
 20
340.0
 30
0.0
 40
4.0
 50
-90.0
 51
-0.0
  0
ARC
  8
0
 62
0
 10
65.0
 20
340.0
 30
0.0
 40
4.0
 50
90.0
 51
-90.0
  0
ARC
  8
0
 62
0
 10
65.0
 20
380.0
 30
0.0
 40
4.0
 50
90.0
 51
-90.0
  0
LINE
  8
0
 62
0
 10
65.0
 20
376.0
 30
0.0
 11
495.0
 21
376.0
 31
0.0
  0
LINE
  8
0
 62
0
 10
65.0
 20
384.0
 30
0.0
 11
495.0
 21
384.0
 31
0.0
  0
ARC
  8
0
 62
0
 10
495.0
 20
380.0
 30
0.0
 40
4.0
 50
-0.0
 51
90.0
  0
ARC
  8
0
 62
0
 10
495.0
 20
380.0
 30
0.0
 40
4.0
 50
-90.0
 51
-0.0
  0
ENDBLK
  0
BLOCK
  8
0
  2
FUSION013
 70
0
 10
0.0
 20
0.0
 30
0.0
  3
FUSION013
  0
LINE
  8
0
 62
0
 10
26.0
 20
170.0
 30
0.0
 11
26.0
 21
270.0
 31
0.0
  0
POLYLINE
  8
0
 62
0
 70
0
 66
1
 10
0.0
 20
0.0
 30
0.0
  0
VERTEX
  8
0
 10
20.0
 20
170.0
 30
0.0
  0
VERTEX
  8
0
 10
24.242640687119284
 20
170.0
 30
0.0
  0
VERTEX
  8
0
 10
26.0
 20
170.0
 30
0.0
  0
SEQEND
  8
0
  0
POLYLINE
  8
0
 62
0
 70
0
 66
1
 10
0.0
 20
0.0
 30
0.0
  0
VERTEX
  8
0
 10
14.0
 20
170.0
 30
0.0
  0
VERTEX
  8
0
 10
15.757359312880714
 20
170.0
 30
0.0
  0
VERTEX
  8
0
 10
20.0
 20
170.0
 30
0.0
  0
SEQEND
  8
0
  0
POLYLINE
  8
0
 62
0
 70
0
 66
1
 10
0.0
 20
0.0
 30
0.0
  0
VERTEX
  8
0
 10
14.0
 20
270.0
 30
0.0
  0
VERTEX
  8
0
 10
15.757359312880714
 20
270.0
 30
0.0
  0
VERTEX
  8
0
 10
20.0
 20
270.0
 30
0.0
  0
SEQEND
  8
0
  0
POLYLINE
  8
0
 62
0
 70
0
 66
1
 10
0.0
 20
0.0
 30
0.0
  0
VERTEX
  8
0
 10
20.0
 20
270.0
 30
0.0
  0
VERTEX
  8
0
 10
24.242640687119284
 20
270.0
 30
0.0
  0
VERTEX
  8
0
 10
26.0
 20
270.0
 30
0.0
  0
SEQEND
  8
0
  0
LINE
  8
0
 62
0
 10
546.0
 20
170.0
 30
0.0
 11
546.0
 21
270.0
 31
0.0
  0
POLYLINE
  8
0
 62
0
 70
0
 66
1
 10
0.0
 20
0.0
 30
0.0
  0
VERTEX
  8
0
 10
540.0
 20
170.0
 30
0.0
  0
VERTEX
  8
0
 10
544.2426406871193
 20
170.0
 30
0.0
  0
VERTEX
  8
0
 10
546.0
 20
170.0
 30
0.0
  0
SEQEND
  8
0
  0
POLYLINE
  8
0
 62
0
 70
0
 66
1
 10
0.0
 20
0.0
 30
0.0
  0
VERTEX
  8
0
 10
534.0
 20
170.0
 30
0.0
  0
VERTEX
  8
0
 10
535.7573593128807
 20
170.0
 30
0.0
  0
VERTEX
  8
0
 10
540.0
 20
170.0
 30
0.0
  0
SEQEND
  8
0
  0
POLYLINE
  8
0
 62
0
 70
0
 66
1
 10
0.0
 20
0.0
 30
0.0
  0
VERTEX
  8
0
 10
534.0
 20
270.0
 30
0.0
  0
VERTEX
  8
0
 10
535.7573593128807
 20
270.0
 30
0.0
  0
VERTEX
  8
0
 10
540.0
 20
270.0
 30
0.0
  0
SEQEND
  8
0
  0
POLYLINE
  8
0
 62
0
 70
0
 66
1
 10
0.0
 20
0.0
 30
0.0
  0
VERTEX
  8
0
 10
540.0
 20
270.0
 30
0.0
  0
VERTEX
  8
0
 10
544.2426406871193
 20
270.0
 30
0.0
  0
VERTEX
  8
0
 10
546.0
 20
270.0
 30
0.0
  0
SEQEND
  8
0
  0
LINE
  8
0
 62
0
 10
14.0
 20
170.0
 30
0.0
 11
14.0
 21
270.0
 31
0.0
  0
ARC
  8
0
 62
0
 10
20.0
 20
170.0
 30
0.0
 40
6.0
 50
-180.0
 51
-0.0
  0
ARC
  8
0
 62
0
 10
20.0
 20
270.0
 30
0.0
 40
6.0
 50
-0.0
 51
-180.0
  0
LINE
  8
0
 62
0
 10
534.0
 20
170.0
 30
0.0
 11
534.0
 21
270.0
 31
0.0
  0
ARC
  8
0
 62
0
 10
540.0
 20
170.0
 30
0.0
 40
6.0
 50
-180.0
 51
-0.0
  0
ARC
  8
0
 62
0
 10
540.0
 20
270.0
 30
0.0
 40
6.0
 50
-0.0
 51
-180.0
  0
ENDBLK
  0
BLOCK
  8
0
  2
FUSION009
 70
0
 10
0.0
 20
0.0
 30
0.0
  3
FUSION009
  0
POLYLINE
  8
0
 62
0
 70
0
 66
1
 10
0.0
 20
0.0
 30
0.0
  0
VERTEX
  8
0
 10
495.0
 20
144.0
 30
0.0
  0
VERTEX
  8
0
 10
495.0
 20
140.0
 30
0.0
  0
SEQEND
  8
0
  0
POLYLINE
  8
0
 62
0
 70
0
 66
1
 10
0.0
 20
0.0
 30
0.0
  0
VERTEX
  8
0
 10
65.0
 20
140.0
 30
0.0
  0
VERTEX
  8
0
 10
65.0
 20
136.0
 30
0.0
  0
SEQEND
  8
0
  0
POLYLINE
  8
0
 62
0
 70
0
 66
1
 10
0.0
 20
0.0
 30
0.0
  0
VERTEX
  8
0
 10
65.0
 20
144.0
 30
0.0
  0
VERTEX
  8
0
 10
65.0
 20
140.0
 30
0.0
  0
SEQEND
  8
0
  0
POLYLINE
  8
0
 62
0
 70
0
 66
1
 10
0.0
 20
0.0
 30
0.0
  0
VERTEX
  8
0
 10
495.0
 20
140.0
 30
0.0
  0
VERTEX
  8
0
 10
495.0
 20
136.0
 30
0.0
  0
SEQEND
  8
0
  0
POLYLINE
  8
0
 62
0
 70
0
 66
1
 10
0.0
 20
0.0
 30
0.0
  0
VERTEX
  8
0
 10
499.0
 20
140.0
 30
0.0
  0
VERTEX
  8
0
 10
495.0
 20
140.0
 30
0.0
  0
SEQEND
  8
0
  0
ARC
  8
0
 62
0
 10
495.0
 20
140.0
 30
0.0
 40
4.0
 50
-0.0
 51
90.0
  0
LINE
  8
0
 62
0
 10
65.0
 20
136.0
 30
0.0
 11
495.0
 21
136.0
 31
0.0
  0
LINE
  8
0
 62
0
 10
65.0
 20
144.0
 30
0.0
 11
495.0
 21
144.0
 31
0.0
  0
ARC
  8
0
 62
0
 10
495.0
 20
140.0
 30
0.0
 40
4.0
 50
-90.0
 51
-0.0
  0
ARC
  8
0
 62
0
 10
65.0
 20
140.0
 30
0.0
 40
4.0
 50
90.0
 51
-90.0
  0
ENDBLK
  0
BLOCK
  8
0
  2
FUSION001
 70
0
 10
0.0
 20
0.0
 30
0.0
  3
FUSION001
  0
LINE
  8
0
 62
0
 10
546.0
 20
170.0
 30
0.0
 11
546.0
 21
270.0
 31
0.0
  0
POLYLINE
  8
0
 62
0
 70
0
 66
1
 10
0.0
 20
0.0
 30
0.0
  0
VERTEX
  8
0
 10
540.0
 20
170.0
 30
0.0
  0
VERTEX
  8
0
 10
544.2426406871193
 20
170.0
 30
0.0
  0
VERTEX
  8
0
 10
546.0
 20
170.0
 30
0.0
  0
SEQEND
  8
0
  0
POLYLINE
  8
0
 62
0
 70
0
 66
1
 10
0.0
 20
0.0
 30
0.0
  0
VERTEX
  8
0
 10
534.0
 20
170.0
 30
0.0
  0
VERTEX
  8
0
 10
535.7573593128807
 20
170.0
 30
0.0
  0
VERTEX
  8
0
 10
540.0
 20
170.0
 30
0.0
  0
SEQEND
  8
0
  0
POLYLINE
  8
0
 62
0
 70
0
 66
1
 10
0.0
 20
0.0
 30
0.0
  0
VERTEX
  8
0
 10
534.0
 20
270.0
 30
0.0
  0
VERTEX
  8
0
 10
535.7573593128807
 20
270.0
 30
0.0
  0
VERTEX
  8
0
 10
540.0
 20
270.0
 30
0.0
  0
SEQEND
  8
0
  0
POLYLINE
  8
0
 62
0
 70
0
 66
1
 10
0.0
 20
0.0
 30
0.0
  0
VERTEX
  8
0
 10
540.0
 20
270.0
 30
0.0
  0
VERTEX
  8
0
 10
544.2426406871193
 20
270.0
 30
0.0
  0
VERTEX
  8
0
 10
546.0
 20
270.0
 30
0.0
  0
SEQEND
  8
0
  0
LINE
  8
0
 62
0
 10
534.0
 20
170.0
 30
0.0
 11
534.0
 21
270.0
 31
0.0
  0
ARC
  8
0
 62
0
 10
540.0
 20
170.0
 30
0.0
 40
6.0
 50
-180.0
 51
-0.0
  0
ARC
  8
0
 62
0
 10
540.0
 20
270.0
 30
0.0
 40
6.0
 50
-0.0
 51
-180.0
  0
ENDBLK
  0
BLOCK
  8
0
  2
FUSION
 70
0
 10
0.0
 20
0.0
 30
0.0
  3
FUSION
  0
POLYLINE
  8
0
 62
0
 70
0
 66
1
 10
0.0
 20
0.0
 30
0.0
  0
VERTEX
  8
0
 10
520.0
 20
45.0
 30
0.0
  0
VERTEX
  8
0
 10
515.0
 20
45.0
 30
0.0
  0
SEQEND
  8
0
  0
POLYLINE
  8
0
 62
0
 70
0
 66
1
 10
0.0
 20
0.0
 30
0.0
  0
VERTEX
  8
0
 10
515.0
 20
45.0
 30
0.0
  0
VERTEX
  8
0
 10
515.0
 20
41.46446609406726
 30
0.0
  0
VERTEX
  8
0
 10
515.0
 20
40.0
 30
0.0
  0
SEQEND
  8
0
  0
LINE
  8
0
 62
0
 10
520.0
 20
45.0
 30
0.0
 11
520.0
 21
395.0
 31
0.0
  0
POLYLINE
  8
0
 62
0
 70
0
 66
1
 10
0.0
 20
0.0
 30
0.0
  0
VERTEX
  8
0
 10
510.0
 20
50.0
 30
0.0
  0
VERTEX
  8
0
 10
511.46446599218996
 20
48.53553400781003
 30
0.0
  0
VERTEX
  8
0
 10
514.9999997103062
 20
45.0000002896938
 30
0.0
  0
SEQEND
  8
0
  0
POLYLINE
  8
0
 62
0
 70
0
 66
1
 10
0.0
 20
0.0
 30
0.0
  0
VERTEX
  8
0
 10
515.0000001778759
 20
395.00000017787585
 30
0.0
  0
VERTEX
  8
0
 10
511.46446615806093
 20
391.46446615806093
 30
0.0
  0
VERTEX
  8
0
 10
510.0
 20
390.0
 30
0.0
  0
SEQEND
  8
0
  0
POLYLINE
  8
0
 62
0
 70
0
 66
1
 10
0.0
 20
0.0
 30
0.0
  0
VERTEX
  8
0
 10
515.0
 20
395.0
 30
0.0
  0
VERTEX
  8
0
 10
520.0
 20
395.0
 30
0.0
  0
SEQEND
  8
0
  0
POLYLINE
  8
0
 62
0
 70
0
 66
1
 10
0.0
 20
0.0
 30
0.0
  0
VERTEX
  8
0
 10
45.0
 20
45.0
 30
0.0
  0
VERTEX
  8
0
 10
45.0
 20
41.46446609406726
 30
0.0
  0
VERTEX
  8
0
 10
45.0
 20
40.0
 30
0.0
  0
SEQEND
  8
0
  0
POLYLINE
  8
0
 62
0
 70
0
 66
1
 10
0.0
 20
0.0
 30
0.0
  0
VERTEX
  8
0
 10
44.999999987588794
 20
44.999999987588794
 30
0.0
  0
VERTEX
  8
0
 10
48.53553390154472
 20
48.53553390154472
 30
0.0
  0
VERTEX
  8
0
 10
50.0
 20
50.0
 30
0.0
  0
SEQEND
  8
0
  0
POLYLINE
  8
0
 62
0
 70
0
 66
1
 10
0.0
 20
0.0
 30
0.0
  0
VERTEX
  8
0
 10
515.0
 20
400.0
 30
0.0
  0
VERTEX
  8
0
 10
515.0
 20
398.53553390593277
 30
0.0
  0
VERTEX
  8
0
 10
515.0
 20
395.0
 30
0.0
  0
SEQEND
  8
0
  0
POLYLINE
  8
0
 62
0
 70
0
 66
1
 10
0.0
 20
0.0
 30
0.0
  0
VERTEX
  8
0
 10
50.0
 20
390.0
 30
0.0
  0
VERTEX
  8
0
 10
48.535534062307455
 20
391.4644659376925
 30
0.0
  0
VERTEX
  8
0
 10
45.000000442294585
 20
394.9999995577054
 30
0.0
  0
SEQEND
  8
0
  0
POLYLINE
  8
0
 62
0
 70
0
 66
1
 10
0.0
 20
0.0
 30
0.0
  0
VERTEX
  8
0
 10
44.99999969985143
 20
395.0000003001486
 30
0.0
  0
VERTEX
  8
0
 10
48.53553379981422
 20
391.46446620018577
 30
0.0
  0
VERTEX
  8
0
 10
50.0
 20
390.0
 30
0.0
  0
SEQEND
  8
0
  0
POLYLINE
  8
0
 62
0
 70
0
 66
1
 10
0.0
 20
0.0
 30
0.0
  0
VERTEX
  8
0
 10
45.0
 20
400.0
 30
0.0
  0
VERTEX
  8
0
 10
45.0
 20
398.53553390593277
 30
0.0
  0
VERTEX
  8
0
 10
45.0
 20
395.0
 30
0.0
  0
SEQEND
  8
0
  0
POLYLINE
  8
0
 62
0
 70
0
 66
1
 10
0.0
 20
0.0
 30
0.0
  0
VERTEX
  8
0
 10
40.0
 20
45.0
 30
0.0
  0
VERTEX
  8
0
 10
45.0
 20
45.0
 30
0.0
  0
SEQEND
  8
0
  0
POLYLINE
  8
0
 62
0
 70
0
 66
1
 10
0.0
 20
0.0
 30
0.0
  0
VERTEX
  8
0
 10
40.0
 20
395.0
 30
0.0
  0
VERTEX
  8
0
 10
45.0
 20
395.0
 30
0.0
  0
SEQEND
  8
0
  0
LINE
  8
0
 62
0
 10
50.0
 20
50.0
 30
0.0
 11
50.0
 21
390.0
 31
0.0
  0
ARC
  8
0
 62
0
 10
515.0
 20
45.0
 30
0.0
 40
5.0
 50
-90.0
 51
-0.0
  0
LINE
  8
0
 62
0
 10
510.0
 20
49.99999999653834
 30
0.0
 11
510.0
 21
390.0000000451908
 31
0.0
  0
LINE
  8
0
 62
0
 10
45.0
 20
40.0
 30
0.0
 11
515.0
 21
40.0
 31
0.0
  0
LINE
  8
0
 62
0
 10
50.0
 20
50.0
 30
0.0
 11
509.9999999923418
 21
50.0
 31
0.0
  0
ARC
  8
0
 62
0
 10
515.0
 20
395.0
 30
0.0
 40
5.0
 50
-0.0
 51
90.0
  0
LINE
  8
0
 62
0
 10
50.0
 20
390.0
 30
0.0
 11
510.00000001501377
 21
390.0
 31
0.0
  0
LINE
  8
0
 62
0
 10
45.0
 20
400.0
 30
0.0
 11
515.0
 21
400.0
 31
0.0
  0
ARC
  8
0
 62
0
 10
45.0
 20
45.0
 30
0.0
 40
5.0
 50
-180.0
 51
-90.0
  0
LINE
  8
0
 62
0
 10
40.0
 20
45.0
 30
0.0
 11
40.0
 21
395.0
 31
0.0
  0
ARC
  8
0
 62
0
 10
45.0
 20
395.0
 30
0.0
 40
5.0
 50
90.0
 51
-180.0
  0
ENDBLK
  0
BLOCK
  8
0
  2
FUSION004
 70
0
 10
0.0
 20
0.0
 30
0.0
  3
FUSION004
  0
POLYLINE
  8
0
 62
0
 70
0
 66
1
 10
0.0
 20
0.0
 30
0.0
  0
VERTEX
  8
0
 10
495.0
 20
344.0
 30
0.0
  0
VERTEX
  8
0
 10
495.0
 20
340.0
 30
0.0
  0
SEQEND
  8
0
  0
POLYLINE
  8
0
 62
0
 70
0
 66
1
 10
0.0
 20
0.0
 30
0.0
  0
VERTEX
  8
0
 10
65.0
 20
340.0
 30
0.0
  0
VERTEX
  8
0
 10
65.0
 20
336.0
 30
0.0
  0
SEQEND
  8
0
  0
POLYLINE
  8
0
 62
0
 70
0
 66
1
 10
0.0
 20
0.0
 30
0.0
  0
VERTEX
  8
0
 10
65.0
 20
344.0
 30
0.0
  0
VERTEX
  8
0
 10
65.0
 20
340.0
 30
0.0
  0
SEQEND
  8
0
  0
POLYLINE
  8
0
 62
0
 70
0
 66
1
 10
0.0
 20
0.0
 30
0.0
  0
VERTEX
  8
0
 10
495.0
 20
340.0
 30
0.0
  0
VERTEX
  8
0
 10
495.0
 20
336.0
 30
0.0
  0
SEQEND
  8
0
  0
POLYLINE
  8
0
 62
0
 70
0
 66
1
 10
0.0
 20
0.0
 30
0.0
  0
VERTEX
  8
0
 10
499.0
 20
340.0
 30
0.0
  0
VERTEX
  8
0
 10
495.0
 20
340.0
 30
0.0
  0
SEQEND
  8
0
  0
ARC
  8
0
 62
0
 10
495.0
 20
340.0
 30
0.0
 40
4.0
 50
-0.0
 51
90.0
  0
LINE
  8
0
 62
0
 10
65.0
 20
336.0
 30
0.0
 11
495.0
 21
336.0
 31
0.0
  0
LINE
  8
0
 62
0
 10
65.0
 20
344.0
 30
0.0
 11
495.0
 21
344.0
 31
0.0
  0
ARC
  8
0
 62
0
 10
495.0
 20
340.0
 30
0.0
 40
4.0
 50
-90.0
 51
-0.0
  0
ARC
  8
0
 62
0
 10
65.0
 20
340.0
 30
0.0
 40
4.0
 50
90.0
 51
-90.0
  0
ENDBLK
  0
BLOCK
  8
0
  2
FUSION008
 70
0
 10
0.0
 20
0.0
 30
0.0
  3
FUSION008
  0
POLYLINE
  8
0
 62
0
 70
0
 66
1
 10
0.0
 20
0.0
 30
0.0
  0
VERTEX
  8
0
 10
495.0
 20
184.0
 30
0.0
  0
VERTEX
  8
0
 10
495.0
 20
180.0
 30
0.0
  0
SEQEND
  8
0
  0
POLYLINE
  8
0
 62
0
 70
0
 66
1
 10
0.0
 20
0.0
 30
0.0
  0
VERTEX
  8
0
 10
65.0
 20
180.0
 30
0.0
  0
VERTEX
  8
0
 10
65.0
 20
176.0
 30
0.0
  0
SEQEND
  8
0
  0
POLYLINE
  8
0
 62
0
 70
0
 66
1
 10
0.0
 20
0.0
 30
0.0
  0
VERTEX
  8
0
 10
65.0
 20
184.0
 30
0.0
  0
VERTEX
  8
0
 10
65.0
 20
180.0
 30
0.0
  0
SEQEND
  8
0
  0
POLYLINE
  8
0
 62
0
 70
0
 66
1
 10
0.0
 20
0.0
 30
0.0
  0
VERTEX
  8
0
 10
495.0
 20
180.0
 30
0.0
  0
VERTEX
  8
0
 10
495.0
 20
176.0
 30
0.0
  0
SEQEND
  8
0
  0
POLYLINE
  8
0
 62
0
 70
0
 66
1
 10
0.0
 20
0.0
 30
0.0
  0
VERTEX
  8
0
 10
499.0
 20
180.0
 30
0.0
  0
VERTEX
  8
0
 10
495.0
 20
180.0
 30
0.0
  0
SEQEND
  8
0
  0
ARC
  8
0
 62
0
 10
495.0
 20
180.0
 30
0.0
 40
4.0
 50
-0.0
 51
90.0
  0
LINE
  8
0
 62
0
 10
65.0
 20
176.0
 30
0.0
 11
495.0
 21
176.0
 31
0.0
  0
LINE
  8
0
 62
0
 10
65.0
 20
184.0
 30
0.0
 11
495.0
 21
184.0
 31
0.0
  0
ARC
  8
0
 62
0
 10
495.0
 20
180.0
 30
0.0
 40
4.0
 50
-90.0
 51
-0.0
  0
ARC
  8
0
 62
0
 10
65.0
 20
180.0
 30
0.0
 40
4.0
 50
90.0
 51
-90.0
  0
ENDBLK
  0
BLOCK
  8
0
  2
FUSION003
 70
0
 10
0.0
 20
0.0
 30
0.0
  3
FUSION003
  0
POLYLINE
  8
0
 62
0
 70
0
 66
1
 10
0.0
 20
0.0
 30
0.0
  0
VERTEX
  8
0
 10
65.0
 20
380.0
 30
0.0
  0
VERTEX
  8
0
 10
65.0
 20
376.0
 30
0.0
  0
SEQEND
  8
0
  0
POLYLINE
  8
0
 62
0
 70
0
 66
1
 10
0.0
 20
0.0
 30
0.0
  0
VERTEX
  8
0
 10
65.0
 20
384.0
 30
0.0
  0
VERTEX
  8
0
 10
65.0
 20
380.0
 30
0.0
  0
SEQEND
  8
0
  0
POLYLINE
  8
0
 62
0
 70
0
 66
1
 10
0.0
 20
0.0
 30
0.0
  0
VERTEX
  8
0
 10
495.0
 20
384.0
 30
0.0
  0
VERTEX
  8
0
 10
495.0
 20
380.0
 30
0.0
  0
SEQEND
  8
0
  0
POLYLINE
  8
0
 62
0
 70
0
 66
1
 10
0.0
 20
0.0
 30
0.0
  0
VERTEX
  8
0
 10
495.0
 20
380.0
 30
0.0
  0
VERTEX
  8
0
 10
495.0
 20
376.0
 30
0.0
  0
SEQEND
  8
0
  0
POLYLINE
  8
0
 62
0
 70
0
 66
1
 10
0.0
 20
0.0
 30
0.0
  0
VERTEX
  8
0
 10
499.0
 20
380.0
 30
0.0
  0
VERTEX
  8
0
 10
495.0
 20
380.0
 30
0.0
  0
SEQEND
  8
0
  0
ARC
  8
0
 62
0
 10
65.0
 20
380.0
 30
0.0
 40
4.0
 50
90.0
 51
-90.0
  0
LINE
  8
0
 62
0
 10
65.0
 20
376.0
 30
0.0
 11
495.0
 21
376.0
 31
0.0
  0
LINE
  8
0
 62
0
 10
65.0
 20
384.0
 30
0.0
 11
495.0
 21
384.0
 31
0.0
  0
ARC
  8
0
 62
0
 10
495.0
 20
380.0
 30
0.0
 40
4.0
 50
-0.0
 51
90.0
  0
ARC
  8
0
 62
0
 10
495.0
 20
380.0
 30
0.0
 40
4.0
 50
-90.0
 51
-0.0
  0
ENDBLK
  0
BLOCK
  8
0
  2
FUSION011
 70
0
 10
0.0
 20
0.0
 30
0.0
  3
FUSION011
  0
POLYLINE
  8
0
 62
0
 70
0
 66
1
 10
0.0
 20
0.0
 30
0.0
  0
VERTEX
  8
0
 10
495.0
 20
64.0
 30
0.0
  0
VERTEX
  8
0
 10
495.0
 20
60.0
 30
0.0
  0
SEQEND
  8
0
  0
POLYLINE
  8
0
 62
0
 70
0
 66
1
 10
0.0
 20
0.0
 30
0.0
  0
VERTEX
  8
0
 10
65.0
 20
60.0
 30
0.0
  0
VERTEX
  8
0
 10
65.0
 20
56.0
 30
0.0
  0
SEQEND
  8
0
  0
POLYLINE
  8
0
 62
0
 70
0
 66
1
 10
0.0
 20
0.0
 30
0.0
  0
VERTEX
  8
0
 10
65.0
 20
64.0
 30
0.0
  0
VERTEX
  8
0
 10
65.0
 20
60.0
 30
0.0
  0
SEQEND
  8
0
  0
POLYLINE
  8
0
 62
0
 70
0
 66
1
 10
0.0
 20
0.0
 30
0.0
  0
VERTEX
  8
0
 10
495.0
 20
60.0
 30
0.0
  0
VERTEX
  8
0
 10
495.0
 20
56.0
 30
0.0
  0
SEQEND
  8
0
  0
POLYLINE
  8
0
 62
0
 70
0
 66
1
 10
0.0
 20
0.0
 30
0.0
  0
VERTEX
  8
0
 10
499.0
 20
60.0
 30
0.0
  0
VERTEX
  8
0
 10
495.0
 20
60.0
 30
0.0
  0
SEQEND
  8
0
  0
ARC
  8
0
 62
0
 10
495.0
 20
60.0
 30
0.0
 40
4.0
 50
-0.0
 51
90.0
  0
LINE
  8
0
 62
0
 10
65.0
 20
56.0
 30
0.0
 11
495.0
 21
56.0
 31
0.0
  0
LINE
  8
0
 62
0
 10
65.0
 20
64.0
 30
0.0
 11
495.0
 21
64.0
 31
0.0
  0
ARC
  8
0
 62
0
 10
495.0
 20
60.0
 30
0.0
 40
4.0
 50
-90.0
 51
-0.0
  0
ARC
  8
0
 62
0
 10
65.0
 20
60.0
 30
0.0
 40
4.0
 50
90.0
 51
-90.0
  0
ENDBLK
  0
BLOCK
  8
0
  2
FUSION002
 70
0
 10
0.0
 20
0.0
 30
0.0
  3
FUSION002
  0
LINE
  8
0
 62
0
 10
26.0
 20
170.0
 30
0.0
 11
26.0
 21
270.0
 31
0.0
  0
POLYLINE
  8
0
 62
0
 70
0
 66
1
 10
0.0
 20
0.0
 30
0.0
  0
VERTEX
  8
0
 10
20.0
 20
170.0
 30
0.0
  0
VERTEX
  8
0
 10
24.242640687119284
 20
170.0
 30
0.0
  0
VERTEX
  8
0
 10
26.0
 20
170.0
 30
0.0
  0
SEQEND
  8
0
  0
POLYLINE
  8
0
 62
0
 70
0
 66
1
 10
0.0
 20
0.0
 30
0.0
  0
VERTEX
  8
0
 10
14.0
 20
170.0
 30
0.0
  0
VERTEX
  8
0
 10
15.757359312880714
 20
170.0
 30
0.0
  0
VERTEX
  8
0
 10
20.0
 20
170.0
 30
0.0
  0
SEQEND
  8
0
  0
POLYLINE
  8
0
 62
0
 70
0
 66
1
 10
0.0
 20
0.0
 30
0.0
  0
VERTEX
  8
0
 10
14.0
 20
270.0
 30
0.0
  0
VERTEX
  8
0
 10
15.757359312880714
 20
270.0
 30
0.0
  0
VERTEX
  8
0
 10
20.0
 20
270.0
 30
0.0
  0
SEQEND
  8
0
  0
POLYLINE
  8
0
 62
0
 70
0
 66
1
 10
0.0
 20
0.0
 30
0.0
  0
VERTEX
  8
0
 10
20.0
 20
270.0
 30
0.0
  0
VERTEX
  8
0
 10
24.242640687119284
 20
270.0
 30
0.0
  0
VERTEX
  8
0
 10
26.0
 20
270.0
 30
0.0
  0
SEQEND
  8
0
  0
LINE
  8
0
 62
0
 10
14.0
 20
170.0
 30
0.0
 11
14.0
 21
270.0
 31
0.0
  0
ARC
  8
0
 62
0
 10
20.0
 20
170.0
 30
0.0
 40
6.0
 50
-180.0
 51
-0.0
  0
ARC
  8
0
 62
0
 10
20.0
 20
270.0
 30
0.0
 40
6.0
 50
-0.0
 51
-180.0
  0
ENDBLK
  0
BLOCK
  8
0
  2
FUSION006
 70
0
 10
0.0
 20
0.0
 30
0.0
  3
FUSION006
  0
POLYLINE
  8
0
 62
0
 70
0
 66
1
 10
0.0
 20
0.0
 30
0.0
  0
VERTEX
  8
0
 10
495.0
 20
264.0
 30
0.0
  0
VERTEX
  8
0
 10
495.0
 20
260.0
 30
0.0
  0
SEQEND
  8
0
  0
POLYLINE
  8
0
 62
0
 70
0
 66
1
 10
0.0
 20
0.0
 30
0.0
  0
VERTEX
  8
0
 10
65.0
 20
260.0
 30
0.0
  0
VERTEX
  8
0
 10
65.0
 20
256.0
 30
0.0
  0
SEQEND
  8
0
  0
POLYLINE
  8
0
 62
0
 70
0
 66
1
 10
0.0
 20
0.0
 30
0.0
  0
VERTEX
  8
0
 10
65.0
 20
264.0
 30
0.0
  0
VERTEX
  8
0
 10
65.0
 20
260.0
 30
0.0
  0
SEQEND
  8
0
  0
POLYLINE
  8
0
 62
0
 70
0
 66
1
 10
0.0
 20
0.0
 30
0.0
  0
VERTEX
  8
0
 10
495.0
 20
260.0
 30
0.0
  0
VERTEX
  8
0
 10
495.0
 20
256.0
 30
0.0
  0
SEQEND
  8
0
  0
POLYLINE
  8
0
 62
0
 70
0
 66
1
 10
0.0
 20
0.0
 30
0.0
  0
VERTEX
  8
0
 10
499.0
 20
260.0
 30
0.0
  0
VERTEX
  8
0
 10
495.0
 20
260.0
 30
0.0
  0
SEQEND
  8
0
  0
ARC
  8
0
 62
0
 10
495.0
 20
260.0
 30
0.0
 40
4.0
 50
-0.0
 51
90.0
  0
LINE
  8
0
 62
0
 10
65.0
 20
256.0
 30
0.0
 11
495.0
 21
256.0
 31
0.0
  0
LINE
  8
0
 62
0
 10
65.0
 20
264.0
 30
0.0
 11
495.0
 21
264.0
 31
0.0
  0
ARC
  8
0
 62
0
 10
495.0
 20
260.0
 30
0.0
 40
4.0
 50
-90.0
 51
-0.0
  0
ARC
  8
0
 62
0
 10
65.0
 20
260.0
 30
0.0
 40
4.0
 50
90.0
 51
-90.0
  0
ENDBLK
  0
BLOCK
  8
0
  2
CUT
 70
0
 10
0.0
 20
0.0
 30
0.0
  3
CUT
  0
LINE
  8
0
 62
0
 10
28.0
 20
20.0
 30
0.0
 11
532.0
 21
20.0
 31
0.0
  0
ARC
  8
0
 62
0
 10
28.0
 20
28.0
 30
0.0
 40
8.0
 50
180.0
 51
-90.0
  0
LINE
  8
0
 62
0
 10
20.0
 20
412.0
 30
0.0
 11
20.0
 21
28.0
 31
0.0
  0
ARC
  8
0
 62
0
 10
532.0
 20
28.0
 30
0.0
 40
8.0
 50
-90.0
 51
0.0
  0
LINE
  8
0
 62
0
 10
540.0
 20
28.0
 30
0.0
 11
540.0
 21
412.0
 31
0.0
  0
ARC
  8
0
 62
0
 10
28.0
 20
412.0
 30
0.0
 40
8.0
 50
90.0
 51
-180.0
  0
ARC
  8
0
 62
0
 10
532.0
 20
412.0
 30
0.0
 40
8.0
 50
-0.0
 51
90.0
  0
LINE
  8
0
 62
0
 10
532.0
 20
420.0
 30
0.0
 11
28.0
 21
420.0
 31
0.0
  0
ARC
  8
0
 62
0
 10
28.0
 20
28.0
 30
0.0
 40
8.0
 50
180.0
 51
-90.0
  0
POLYLINE
  8
0
 62
0
 70
0
 66
1
 10
0.0
 20
0.0
 30
0.0
  0
VERTEX
  8
0
 10
28.0
 20
23.0
 30
0.0
  0
VERTEX
  8
0
 10
28.0
 20
20.0
 30
0.0
  0
SEQEND
  8
0
  0
LINE
  8
0
 62
0
 10
28.0
 20
23.0
 30
0.0
 11
532.0
 21
23.0
 31
0.0
  0
POLYLINE
  8
0
 62
0
 70
0
 66
1
 10
0.0
 20
0.0
 30
0.0
  0
VERTEX
  8
0
 10
532.0
 20
23.0
 30
0.0
  0
VERTEX
  8
0
 10
532.0
 20
20.0
 30
0.0
  0
SEQEND
  8
0
  0
ARC
  8
0
 62
0
 10
532.0
 20
28.0
 30
0.0
 40
8.0
 50
-90.0
 51
0.0
  0
ARC
  8
0
 62
0
 10
28.0
 20
28.0
 30
0.0
 40
5.0
 50
180.0
 51
-90.0
  0
POLYLINE
  8
0
 62
0
 70
0
 66
1
 10
0.0
 20
0.0
 30
0.0
  0
VERTEX
  8
0
 10
23.0
 20
28.0
 30
0.0
  0
VERTEX
  8
0
 10
20.0
 20
28.0
 30
0.0
  0
SEQEND
  8
0
  0
ARC
  8
0
 62
0
 10
532.0
 20
28.0
 30
0.0
 40
5.0
 50
-90.0
 51
0.0
  0
LINE
  8
0
 62
0
 10
23.0
 20
412.0
 30
0.0
 11
23.0
 21
28.0
 31
0.0
  0
LINE
  8
0
 62
0
 10
537.0
 20
28.0
 30
0.0
 11
537.0
 21
412.0
 31
0.0
  0
ARC
  8
0
 62
0
 10
28.0
 20
412.0
 30
0.0
 40
5.0
 50
90.0
 51
-180.0
  0
ARC
  8
0
 62
0
 10
532.0
 20
412.0
 30
0.0
 40
5.0
 50
-0.0
 51
90.0
  0
LINE
  8
0
 62
0
 10
532.0
 20
417.0
 30
0.0
 11
28.0
 21
417.0
 31
0.0
  0
POLYLINE
  8
0
 62
0
 70
0
 66
1
 10
0.0
 20
0.0
 30
0.0
  0
VERTEX
  8
0
 10
537.0
 20
28.0
 30
0.0
  0
VERTEX
  8
0
 10
540.0
 20
28.0
 30
0.0
  0
SEQEND
  8
0
  0
POLYLINE
  8
0
 62
0
 70
0
 66
1
 10
0.0
 20
0.0
 30
0.0
  0
VERTEX
  8
0
 10
23.0
 20
412.0
 30
0.0
  0
VERTEX
  8
0
 10
20.0
 20
412.0
 30
0.0
  0
SEQEND
  8
0
  0
ARC
  8
0
 62
0
 10
28.0
 20
412.0
 30
0.0
 40
8.0
 50
90.0
 51
-180.0
  0
POLYLINE
  8
0
 62
0
 70
0
 66
1
 10
0.0
 20
0.0
 30
0.0
  0
VERTEX
  8
0
 10
537.0
 20
412.0
 30
0.0
  0
VERTEX
  8
0
 10
540.0
 20
412.0
 30
0.0
  0
SEQEND
  8
0
  0
POLYLINE
  8
0
 62
0
 70
0
 66
1
 10
0.0
 20
0.0
 30
0.0
  0
VERTEX
  8
0
 10
28.0
 20
417.0
 30
0.0
  0
VERTEX
  8
0
 10
28.0
 20
420.0
 30
0.0
  0
SEQEND
  8
0
  0
POLYLINE
  8
0
 62
0
 70
0
 66
1
 10
0.0
 20
0.0
 30
0.0
  0
VERTEX
  8
0
 10
532.0
 20
417.0
 30
0.0
  0
VERTEX
  8
0
 10
532.0
 20
420.0
 30
0.0
  0
SEQEND
  8
0
  0
ENDBLK
  0
BLOCK
  8
3D_Object
  2
BOX
 70
0
 10
0.0
 20
0.0
 30
0.0
  3
BOX
  0
LINE
  8
3D_Object
 62
0
 10
0.0
 20
0.0
 30
0.0
 11
0.0
 21
500.0
 31
0.0
  0
LINE
  8
3D_Object
 62
0
 10
560.0
 20
0.0
 30
0.0
 11
560.0
 21
500.0
 31
0.0
  0
LINE
  8
3D_Object
 62
0
 10
0.0
 20
0.0
 30
0.0
 11
560.0
 21
0.0
 31
0.0
  0
LINE
  8
3D_Object
 62
0
 10
0.0
 20
500.0
 30
0.0
 11
560.0
 21
500.0
 31
0.0
  0
ENDBLK
  0
BLOCK
  8
3D_Object
  2
CUT002
 70
0
 10
0.0
 20
0.0
 30
0.0
  3
CUT002
  0
LINE
  8
3D_Object
 62
18
 10
28.0
 20
20.0
 30
0.0
 11
532.0
 21
20.0
 31
0.0
  0
ARC
  8
3D_Object
 62
18
 10
28.0
 20
28.0
 30
0.0
 40
8.0
 50
180.0
 51
-90.0
  0
LINE
  8
3D_Object
 62
18
 10
20.0
 20
412.0
 30
0.0
 11
20.0
 21
28.0
 31
0.0
  0
ARC
  8
3D_Object
 62
18
 10
515.0
 20
395.0
 30
0.0
 40
5.0
 50
-0.0
 51
90.0
  0
LINE
  8
3D_Object
 62
18
 10
45.0
 20
400.0
 30
0.0
 11
515.0000000000001
 21
400.0
 31
0.0
  0
ARC
  8
3D_Object
 62
18
 10
45.0
 20
395.0
 30
0.0
 40
5.0
 50
90.0
 51
-180.0
  0
LINE
  8
3D_Object
 62
18
 10
40.0
 20
45.0
 30
0.0
 11
40.0
 21
395.00000000000006
 31
0.0
  0
ARC
  8
3D_Object
 62
18
 10
45.0
 20
45.0
 30
0.0
 40
5.0
 50
-180.0
 51
-90.0
  0
LINE
  8
3D_Object
 62
18
 10
45.0
 20
40.0
 30
0.0
 11
515.0000000000001
 21
40.0
 31
0.0
  0
ARC
  8
3D_Object
 62
18
 10
515.0
 20
45.0
 30
0.0
 40
5.0
 50
-90.0
 51
-0.0
  0
LINE
  8
3D_Object
 62
18
 10
520.0
 20
45.0
 30
0.0
 11
520.0
 21
395.0
 31
0.0
  0
ARC
  8
3D_Object
 62
18
 10
532.0
 20
28.0
 30
0.0
 40
8.0
 50
-90.0
 51
0.0
  0
LINE
  8
3D_Object
 62
18
 10
540.0
 20
28.0
 30
0.0
 11
540.0
 21
412.0
 31
0.0
  0
ARC
  8
3D_Object
 62
18
 10
28.0
 20
412.0
 30
0.0
 40
8.0
 50
90.0
 51
-180.0
  0
ARC
  8
3D_Object
 62
18
 10
532.0
 20
412.0
 30
0.0
 40
8.0
 50
-0.0
 51
90.0
  0
LINE
  8
3D_Object
 62
18
 10
532.0
 20
420.0
 30
0.0
 11
28.0
 21
420.0
 31
0.0
  0
POLYLINE
  8
3D_Object
 62
18
 70
0
 66
1
 10
0.0
 20
0.0
 30
0.0
  0
VERTEX
  8
3D_Object
 10
520.0
 20
395.0
 30
0.0
  0
VERTEX
  8
3D_Object
 10
515.0000000000001
 20
395.0
 30
0.0
  0
SEQEND
  8
3D_Object
  0
POLYLINE
  8
3D_Object
 62
18
 70
0
 66
1
 10
0.0
 20
0.0
 30
0.0
  0
VERTEX
  8
3D_Object
 10
515.0
 20
395.0
 30
0.0
  0
VERTEX
  8
3D_Object
 10
515.0
 20
400.0
 30
0.0
  0
SEQEND
  8
3D_Object
  0
POLYLINE
  8
3D_Object
 62
18
 70
0
 66
1
 10
0.0
 20
0.0
 30
0.0
  0
VERTEX
  8
3D_Object
 10
45.0
 20
395.0
 30
0.0
  0
VERTEX
  8
3D_Object
 10
45.0
 20
400.0
 30
0.0
  0
SEQEND
  8
3D_Object
  0
POLYLINE
  8
3D_Object
 62
18
 70
0
 66
1
 10
0.0
 20
0.0
 30
0.0
  0
VERTEX
  8
3D_Object
 10
45.0
 20
395.0
 30
0.0
  0
VERTEX
  8
3D_Object
 10
40.0
 20
395.0
 30
0.0
  0
SEQEND
  8
3D_Object
  0
POLYLINE
  8
3D_Object
 62
18
 70
0
 66
1
 10
0.0
 20
0.0
 30
0.0
  0
VERTEX
  8
3D_Object
 10
45.0
 20
45.0
 30
0.0
  0
VERTEX
  8
3D_Object
 10
40.0
 20
45.0
 30
0.0
  0
SEQEND
  8
3D_Object
  0
POLYLINE
  8
3D_Object
 62
18
 70
0
 66
1
 10
0.0
 20
0.0
 30
0.0
  0
VERTEX
  8
3D_Object
 10
50.0
 20
50.0
 30
0.0
  0
VERTEX
  8
3D_Object
 10
48.53553390355441
 20
48.53553390355441
 30
0.0
  0
VERTEX
  8
3D_Object
 10
44.99999999327308
 20
44.99999999327308
 30
0.0
  0
SEQEND
  8
3D_Object
  0
LINE
  8
3D_Object
 62
18
 10
50.0
 20
50.0
 30
0.0
 11
50.0
 21
390.0
 31
0.0
  0
POLYLINE
  8
3D_Object
 62
18
 70
0
 66
1
 10
0.0
 20
0.0
 30
0.0
  0
VERTEX
  8
3D_Object
 10
50.0
 20
390.0
 30
0.0
  0
VERTEX
  8
3D_Object
 10
48.535534062307455
 20
391.4644659376925
 30
0.0
  0
VERTEX
  8
3D_Object
 10
45.000000442294585
 20
394.9999995577054
 30
0.0
  0
SEQEND
  8
3D_Object
  0
POLYLINE
  8
3D_Object
 62
18
 70
0
 66
1
 10
0.0
 20
0.0
 30
0.0
  0
VERTEX
  8
3D_Object
 10
45.0
 20
40.0
 30
0.0
  0
VERTEX
  8
3D_Object
 10
45.0
 20
45.0
 30
0.0
  0
SEQEND
  8
3D_Object
  0
POLYLINE
  8
3D_Object
 62
18
 70
0
 66
1
 10
0.0
 20
0.0
 30
0.0
  0
VERTEX
  8
3D_Object
 10
515.0
 20
40.0
 30
0.0
  0
VERTEX
  8
3D_Object
 10
515.0
 20
45.0
 30
0.0
  0
SEQEND
  8
3D_Object
  0
POLYLINE
  8
3D_Object
 62
18
 70
0
 66
1
 10
0.0
 20
0.0
 30
0.0
  0
VERTEX
  8
3D_Object
 10
515.0
 20
45.0
 30
0.0
  0
VERTEX
  8
3D_Object
 10
520.0
 20
45.0
 30
0.0
  0
SEQEND
  8
3D_Object
  0
POLYLINE
  8
3D_Object
 62
18
 70
0
 66
1
 10
0.0
 20
0.0
 30
0.0
  0
VERTEX
  8
3D_Object
 10
510.0
 20
390.0
 30
0.0
  0
VERTEX
  8
3D_Object
 10
511.4644660577439
 20
391.4644660577439
 30
0.0
  0
VERTEX
  8
3D_Object
 10
514.999999897262
 20
394.999999897262
 30
0.0
  0
SEQEND
  8
3D_Object
  0
LINE
  8
3D_Object
 62
18
 10
510.0
 20
50.0
 30
0.0
 11
510.0
 21
390.0
 31
0.0
  0
POLYLINE
  8
3D_Object
 62
18
 70
0
 66
1
 10
0.0
 20
0.0
 30
0.0
  0
VERTEX
  8
3D_Object
 10
515.0
 20
45.0
 30
0.0
  0
VERTEX
  8
3D_Object
 10
511.46446609406723
 20
48.53553390593274
 30
0.0
  0
VERTEX
  8
3D_Object
 10
510.0
 20
50.0
 30
0.0
  0
SEQEND
  8
3D_Object
  0
LINE
  8
3D_Object
 62
18
 10
50.0
 20
390.0
 30
0.0
 11
510.0
 21
390.0
 31
0.0
  0
LINE
  8
3D_Object
 62
18
 10
50.0
 20
50.0
 30
0.0
 11
510.0
 21
50.0
 31
0.0
  0
ARC
  8
3D_Object
 62
18
 10
28.0
 20
28.0
 30
0.0
 40
8.0
 50
180.0
 51
-90.0
  0
POLYLINE
  8
3D_Object
 62
18
 70
0
 66
1
 10
0.0
 20
0.0
 30
0.0
  0
VERTEX
  8
3D_Object
 10
28.0
 20
23.0
 30
0.0
  0
VERTEX
  8
3D_Object
 10
28.0
 20
20.0
 30
0.0
  0
SEQEND
  8
3D_Object
  0
LINE
  8
3D_Object
 62
18
 10
28.0
 20
23.0
 30
0.0
 11
532.0
 21
23.0
 31
0.0
  0
POLYLINE
  8
3D_Object
 62
18
 70
0
 66
1
 10
0.0
 20
0.0
 30
0.0
  0
VERTEX
  8
3D_Object
 10
532.0
 20
23.0
 30
0.0
  0
VERTEX
  8
3D_Object
 10
532.0
 20
20.0
 30
0.0
  0
SEQEND
  8
3D_Object
  0
ARC
  8
3D_Object
 62
18
 10
532.0
 20
28.0
 30
0.0
 40
8.0
 50
-90.0
 51
0.0
  0
ARC
  8
3D_Object
 62
18
 10
28.0
 20
28.0
 30
0.0
 40
5.0
 50
180.0
 51
-90.0
  0
POLYLINE
  8
3D_Object
 62
18
 70
0
 66
1
 10
0.0
 20
0.0
 30
0.0
  0
VERTEX
  8
3D_Object
 10
23.0
 20
28.0
 30
0.0
  0
VERTEX
  8
3D_Object
 10
20.0
 20
28.0
 30
0.0
  0
SEQEND
  8
3D_Object
  0
ARC
  8
3D_Object
 62
18
 10
532.0
 20
28.0
 30
0.0
 40
5.0
 50
-90.0
 51
0.0
  0
LINE
  8
3D_Object
 62
18
 10
23.0
 20
412.0
 30
0.0
 11
23.0
 21
28.0
 31
0.0
  0
LINE
  8
3D_Object
 62
18
 10
537.0
 20
28.0
 30
0.0
 11
537.0
 21
412.0
 31
0.0
  0
ARC
  8
3D_Object
 62
18
 10
28.0
 20
412.0
 30
0.0
 40
5.0
 50
90.0
 51
-180.0
  0
ARC
  8
3D_Object
 62
18
 10
532.0
 20
412.0
 30
0.0
 40
5.0
 50
-0.0
 51
90.0
  0
LINE
  8
3D_Object
 62
18
 10
532.0
 20
417.0
 30
0.0
 11
28.0
 21
417.0
 31
0.0
  0
POLYLINE
  8
3D_Object
 62
18
 70
0
 66
1
 10
0.0
 20
0.0
 30
0.0
  0
VERTEX
  8
3D_Object
 10
537.0
 20
28.0
 30
0.0
  0
VERTEX
  8
3D_Object
 10
540.0
 20
28.0
 30
0.0
  0
SEQEND
  8
3D_Object
  0
POLYLINE
  8
3D_Object
 62
18
 70
0
 66
1
 10
0.0
 20
0.0
 30
0.0
  0
VERTEX
  8
3D_Object
 10
23.0
 20
412.0
 30
0.0
  0
VERTEX
  8
3D_Object
 10
20.0
 20
412.0
 30
0.0
  0
SEQEND
  8
3D_Object
  0
ARC
  8
3D_Object
 62
18
 10
28.0
 20
412.0
 30
0.0
 40
8.0
 50
90.0
 51
-180.0
  0
POLYLINE
  8
3D_Object
 62
18
 70
0
 66
1
 10
0.0
 20
0.0
 30
0.0
  0
VERTEX
  8
3D_Object
 10
537.0
 20
412.0
 30
0.0
  0
VERTEX
  8
3D_Object
 10
540.0
 20
412.0
 30
0.0
  0
SEQEND
  8
3D_Object
  0
POLYLINE
  8
3D_Object
 62
18
 70
0
 66
1
 10
0.0
 20
0.0
 30
0.0
  0
VERTEX
  8
3D_Object
 10
28.0
 20
417.0
 30
0.0
  0
VERTEX
  8
3D_Object
 10
28.0
 20
420.0
 30
0.0
  0
SEQEND
  8
3D_Object
  0
POLYLINE
  8
3D_Object
 62
18
 70
0
 66
1
 10
0.0
 20
0.0
 30
0.0
  0
VERTEX
  8
3D_Object
 10
532.0
 20
417.0
 30
0.0
  0
VERTEX
  8
3D_Object
 10
532.0
 20
420.0
 30
0.0
  0
SEQEND
  8
3D_Object
  0
LINE
  8
3D_Object
 62
18
 10
45.0
 20
395.0
 30
0.0
 11
515.0
 21
395.0
 31
0.0
  0
LINE
  8
3D_Object
 62
18
 10
45.0
 20
45.0
 30
0.0
 11
515.0
 21
45.0
 31
0.0
  0
ENDBLK
  0
BLOCK
  8
0
  2
FILLET
 70
0
 10
0.0
 20
0.0
 30
0.0
  3
FILLET
  0
LINE
  8
0
 62
0
 10
28.0
 20
20.0
 30
0.0
 11
532.0
 21
20.0
 31
0.0
  0
ARC
  8
0
 62
0
 10
28.0
 20
28.0
 30
0.0
 40
8.0
 50
180.0
 51
-90.0
  0
LINE
  8
0
 62
0
 10
20.0
 20
412.0
 30
0.0
 11
20.0
 21
28.0
 31
0.0
  0
ARC
  8
0
 62
0
 10
532.0
 20
28.0
 30
0.0
 40
8.0
 50
-90.0
 51
0.0
  0
LINE
  8
0
 62
0
 10
540.0
 20
28.0
 30
0.0
 11
540.0
 21
412.0
 31
0.0
  0
ARC
  8
0
 62
0
 10
28.0
 20
412.0
 30
0.0
 40
8.0
 50
90.0
 51
-180.0
  0
ARC
  8
0
 62
0
 10
532.0
 20
412.0
 30
0.0
 40
8.0
 50
-0.0
 51
90.0
  0
LINE
  8
0
 62
0
 10
532.0
 20
420.0
 30
0.0
 11
28.0
 21
420.0
 31
0.0
  0
ARC
  8
0
 62
0
 10
28.0
 20
28.0
 30
0.0
 40
8.0
 50
180.0
 51
-90.0
  0
POLYLINE
  8
0
 62
0
 70
0
 66
1
 10
0.0
 20
0.0
 30
0.0
  0
VERTEX
  8
0
 10
28.0
 20
23.0
 30
0.0
  0
VERTEX
  8
0
 10
28.0
 20
20.0
 30
0.0
  0
SEQEND
  8
0
  0
LINE
  8
0
 62
0
 10
28.0
 20
23.0
 30
0.0
 11
532.0
 21
23.0
 31
0.0
  0
POLYLINE
  8
0
 62
0
 70
0
 66
1
 10
0.0
 20
0.0
 30
0.0
  0
VERTEX
  8
0
 10
532.0
 20
23.0
 30
0.0
  0
VERTEX
  8
0
 10
532.0
 20
20.0
 30
0.0
  0
SEQEND
  8
0
  0
ARC
  8
0
 62
0
 10
532.0
 20
28.0
 30
0.0
 40
8.0
 50
-90.0
 51
0.0
  0
ARC
  8
0
 62
0
 10
28.0
 20
28.0
 30
0.0
 40
5.0
 50
180.0
 51
-90.0
  0
POLYLINE
  8
0
 62
0
 70
0
 66
1
 10
0.0
 20
0.0
 30
0.0
  0
VERTEX
  8
0
 10
23.0
 20
28.0
 30
0.0
  0
VERTEX
  8
0
 10
20.0
 20
28.0
 30
0.0
  0
SEQEND
  8
0
  0
ARC
  8
0
 62
0
 10
532.0
 20
28.0
 30
0.0
 40
5.0
 50
-90.0
 51
0.0
  0
LINE
  8
0
 62
0
 10
23.0
 20
412.0
 30
0.0
 11
23.0
 21
28.0
 31
0.0
  0
LINE
  8
0
 62
0
 10
537.0
 20
28.0
 30
0.0
 11
537.0
 21
412.0
 31
0.0
  0
ARC
  8
0
 62
0
 10
28.0
 20
412.0
 30
0.0
 40
5.0
 50
90.0
 51
-180.0
  0
ARC
  8
0
 62
0
 10
532.0
 20
412.0
 30
0.0
 40
5.0
 50
-0.0
 51
90.0
  0
LINE
  8
0
 62
0
 10
532.0
 20
417.0
 30
0.0
 11
28.0
 21
417.0
 31
0.0
  0
POLYLINE
  8
0
 62
0
 70
0
 66
1
 10
0.0
 20
0.0
 30
0.0
  0
VERTEX
  8
0
 10
537.0
 20
28.0
 30
0.0
  0
VERTEX
  8
0
 10
540.0
 20
28.0
 30
0.0
  0
SEQEND
  8
0
  0
POLYLINE
  8
0
 62
0
 70
0
 66
1
 10
0.0
 20
0.0
 30
0.0
  0
VERTEX
  8
0
 10
23.0
 20
412.0
 30
0.0
  0
VERTEX
  8
0
 10
20.0
 20
412.0
 30
0.0
  0
SEQEND
  8
0
  0
ARC
  8
0
 62
0
 10
28.0
 20
412.0
 30
0.0
 40
8.0
 50
90.0
 51
-180.0
  0
POLYLINE
  8
0
 62
0
 70
0
 66
1
 10
0.0
 20
0.0
 30
0.0
  0
VERTEX
  8
0
 10
537.0
 20
412.0
 30
0.0
  0
VERTEX
  8
0
 10
540.0
 20
412.0
 30
0.0
  0
SEQEND
  8
0
  0
POLYLINE
  8
0
 62
0
 70
0
 66
1
 10
0.0
 20
0.0
 30
0.0
  0
VERTEX
  8
0
 10
28.0
 20
417.0
 30
0.0
  0
VERTEX
  8
0
 10
28.0
 20
420.0
 30
0.0
  0
SEQEND
  8
0
  0
POLYLINE
  8
0
 62
0
 70
0
 66
1
 10
0.0
 20
0.0
 30
0.0
  0
VERTEX
  8
0
 10
532.0
 20
417.0
 30
0.0
  0
VERTEX
  8
0
 10
532.0
 20
420.0
 30
0.0
  0
SEQEND
  8
0
  0
ENDBLK
  0
BLOCK
  8
0
  2
CYLINDER008
 70
0
 10
0.0
 20
0.0
 30
0.0
  3
CYLINDER008
  0
POLYLINE
  8
0
 62
0
 70
0
 66
1
 10
0.0
 20
0.0
 30
0.0
  0
VERTEX
  8
0
 10
495.0
 20
304.0
 30
0.0
  0
VERTEX
  8
0
 10
495.0
 20
300.0
 30
0.0
  0
VERTEX
  8
0
 10
495.0
 20
296.0
 30
0.0
  0
SEQEND
  8
0
  0
POLYLINE
  8
0
 62
0
 70
0
 66
1
 10
0.0
 20
0.0
 30
0.0
  0
VERTEX
  8
0
 10
65.0
 20
304.0
 30
0.0
  0
VERTEX
  8
0
 10
65.0
 20
300.0
 30
0.0
  0
VERTEX
  8
0
 10
65.0
 20
296.0
 30
0.0
  0
SEQEND
  8
0
  0
LINE
  8
0
 62
0
 10
65.0
 20
296.0
 30
0.0
 11
495.0
 21
296.0
 31
0.0
  0
LINE
  8
0
 62
0
 10
65.0
 20
304.0
 30
0.0
 11
495.0
 21
304.0
 31
0.0
  0
ENDBLK
  0
BLOCK
  8
0
  2
CYLINDER009
 70
0
 10
0.0
 20
0.0
 30
0.0
  3
CYLINDER009
  0
POLYLINE
  8
0
 62
0
 70
0
 66
1
 10
0.0
 20
0.0
 30
0.0
  0
VERTEX
  8
0
 10
495.0
 20
264.0
 30
0.0
  0
VERTEX
  8
0
 10
495.0
 20
260.0
 30
0.0
  0
VERTEX
  8
0
 10
495.0
 20
256.0
 30
0.0
  0
SEQEND
  8
0
  0
POLYLINE
  8
0
 62
0
 70
0
 66
1
 10
0.0
 20
0.0
 30
0.0
  0
VERTEX
  8
0
 10
65.0
 20
264.0
 30
0.0
  0
VERTEX
  8
0
 10
65.0
 20
260.0
 30
0.0
  0
VERTEX
  8
0
 10
65.0
 20
256.0
 30
0.0
  0
SEQEND
  8
0
  0
LINE
  8
0
 62
0
 10
65.0
 20
256.0
 30
0.0
 11
495.0
 21
256.0
 31
0.0
  0
LINE
  8
0
 62
0
 10
65.0
 20
264.0
 30
0.0
 11
495.0
 21
264.0
 31
0.0
  0
ENDBLK
  0
BLOCK
  8
0
  2
CYLINDER
 70
0
 10
0.0
 20
0.0
 30
0.0
  3
CYLINDER
  0
POLYLINE
  8
0
 62
0
 70
0
 66
1
 10
0.0
 20
0.0
 30
0.0
  0
VERTEX
  8
0
 10
515.0
 20
50.0
 30
0.0
  0
VERTEX
  8
0
 10
515.0
 20
47.48542880015642
 30
0.0
  0
VERTEX
  8
0
 10
515.0
 20
42.51457119984359
 30
0.0
  0
VERTEX
  8
0
 10
515.0
 20
40.0
 30
0.0
  0
SEQEND
  8
0
  0
POLYLINE
  8
0
 62
0
 70
0
 66
1
 10
0.0
 20
0.0
 30
0.0
  0
VERTEX
  8
0
 10
45.0
 20
50.0
 30
0.0
  0
VERTEX
  8
0
 10
45.0
 20
47.48542880015642
 30
0.0
  0
VERTEX
  8
0
 10
45.0
 20
42.51457119984359
 30
0.0
  0
VERTEX
  8
0
 10
45.0
 20
40.0
 30
0.0
  0
SEQEND
  8
0
  0
LINE
  8
0
 62
0
 10
45.0
 20
40.0
 30
0.0
 11
515.0
 21
40.0
 31
0.0
  0
LINE
  8
0
 62
0
 10
45.0
 20
50.0
 30
0.0
 11
515.0
 21
50.0
 31
0.0
  0
ENDBLK
  0
BLOCK
  8
0
  2
CYLINDER002
 70
0
 10
0.0
 20
0.0
 30
0.0
  3
CYLINDER002
  0
POLYLINE
  8
0
 62
0
 70
0
 66
1
 10
0.0
 20
0.0
 30
0.0
  0
VERTEX
  8
0
 10
40.0
 20
395.0
 30
0.0
  0
VERTEX
  8
0
 10
42.51457119984358
 20
395.0
 30
0.0
  0
VERTEX
  8
0
 10
47.48542880015641
 20
395.0
 30
0.0
  0
VERTEX
  8
0
 10
50.0
 20
395.0
 30
0.0
  0
SEQEND
  8
0
  0
LINE
  8
0
 62
0
 10
50.0
 20
45.0
 30
0.0
 11
50.0
 21
395.0
 31
0.0
  0
POLYLINE
  8
0
 62
0
 70
0
 66
1
 10
0.0
 20
0.0
 30
0.0
  0
VERTEX
  8
0
 10
40.0
 20
45.0
 30
0.0
  0
VERTEX
  8
0
 10
42.51457119984358
 20
45.0
 30
0.0
  0
VERTEX
  8
0
 10
47.48542880015641
 20
45.0
 30
0.0
  0
VERTEX
  8
0
 10
50.0
 20
45.0
 30
0.0
  0
SEQEND
  8
0
  0
LINE
  8
0
 62
0
 10
40.0
 20
45.0
 30
0.0
 11
40.0
 21
395.0
 31
0.0
  0
ENDBLK
  0
BLOCK
  8
0
  2
CYLINDER003
 70
0
 10
0.0
 20
0.0
 30
0.0
  3
CYLINDER003
  0
POLYLINE
  8
0
 62
0
 70
0
 66
1
 10
0.0
 20
0.0
 30
0.0
  0
VERTEX
  8
0
 10
510.0
 20
395.0
 30
0.0
  0
VERTEX
  8
0
 10
512.5145711998435
 20
395.0
 30
0.0
  0
VERTEX
  8
0
 10
517.4854288001563
 20
395.0
 30
0.0
  0
VERTEX
  8
0
 10
520.0
 20
395.0
 30
0.0
  0
SEQEND
  8
0
  0
LINE
  8
0
 62
0
 10
520.0
 20
45.0
 30
0.0
 11
520.0
 21
395.0
 31
0.0
  0
POLYLINE
  8
0
 62
0
 70
0
 66
1
 10
0.0
 20
0.0
 30
0.0
  0
VERTEX
  8
0
 10
510.0
 20
45.0
 30
0.0
  0
VERTEX
  8
0
 10
512.5145711998435
 20
45.0
 30
0.0
  0
VERTEX
  8
0
 10
517.4854288001563
 20
45.0
 30
0.0
  0
VERTEX
  8
0
 10
520.0
 20
45.0
 30
0.0
  0
SEQEND
  8
0
  0
LINE
  8
0
 62
0
 10
510.0
 20
45.0
 30
0.0
 11
510.0
 21
395.0
 31
0.0
  0
ENDBLK
  0
BLOCK
  8
0
  2
CYLINDER001
 70
0
 10
0.0
 20
0.0
 30
0.0
  3
CYLINDER001
  0
POLYLINE
  8
0
 62
0
 70
0
 66
1
 10
0.0
 20
0.0
 30
0.0
  0
VERTEX
  8
0
 10
515.0
 20
400.0
 30
0.0
  0
VERTEX
  8
0
 10
515.0
 20
395.0
 30
0.0
  0
VERTEX
  8
0
 10
515.0
 20
390.0
 30
0.0
  0
SEQEND
  8
0
  0
POLYLINE
  8
0
 62
0
 70
0
 66
1
 10
0.0
 20
0.0
 30
0.0
  0
VERTEX
  8
0
 10
45.0
 20
400.0
 30
0.0
  0
VERTEX
  8
0
 10
45.0
 20
395.0
 30
0.0
  0
VERTEX
  8
0
 10
45.0
 20
390.0
 30
0.0
  0
SEQEND
  8
0
  0
LINE
  8
0
 62
0
 10
45.0
 20
390.0
 30
0.0
 11
515.0
 21
390.0
 31
0.0
  0
LINE
  8
0
 62
0
 10
45.0
 20
400.0
 30
0.0
 11
515.0
 21
400.0
 31
0.0
  0
ENDBLK
  0
BLOCK
  8
0
  2
CYLINDER004
 70
0
 10
0.0
 20
0.0
 30
0.0
  3
CYLINDER004
  0
POLYLINE
  8
0
 62
0
 70
0
 66
1
 10
0.0
 20
0.0
 30
0.0
  0
VERTEX
  8
0
 10
534.0
 20
270.0
 30
0.0
  0
VERTEX
  8
0
 10
537.0174854398123
 20
270.0
 30
0.0
  0
VERTEX
  8
0
 10
542.9825145601877
 20
270.0
 30
0.0
  0
VERTEX
  8
0
 10
546.0
 20
270.0
 30
0.0
  0
SEQEND
  8
0
  0
LINE
  8
0
 62
0
 10
546.0
 20
170.0
 30
0.0
 11
546.0
 21
270.0
 31
0.0
  0
POLYLINE
  8
0
 62
0
 70
0
 66
1
 10
0.0
 20
0.0
 30
0.0
  0
VERTEX
  8
0
 10
534.0
 20
170.0
 30
0.0
  0
VERTEX
  8
0
 10
537.0174854398123
 20
170.0
 30
0.0
  0
VERTEX
  8
0
 10
542.9825145601877
 20
170.0
 30
0.0
  0
VERTEX
  8
0
 10
546.0
 20
170.0
 30
0.0
  0
SEQEND
  8
0
  0
LINE
  8
0
 62
0
 10
534.0
 20
170.0
 30
0.0
 11
534.0
 21
270.0
 31
0.0
  0
ENDBLK
  0
BLOCK
  8
0
  2
CYLINDER007
 70
0
 10
0.0
 20
0.0
 30
0.0
  3
CYLINDER007
  0
POLYLINE
  8
0
 62
0
 70
0
 66
1
 10
0.0
 20
0.0
 30
0.0
  0
VERTEX
  8
0
 10
495.0
 20
344.0
 30
0.0
  0
VERTEX
  8
0
 10
495.0
 20
340.0
 30
0.0
  0
VERTEX
  8
0
 10
495.0
 20
336.0
 30
0.0
  0
SEQEND
  8
0
  0
POLYLINE
  8
0
 62
0
 70
0
 66
1
 10
0.0
 20
0.0
 30
0.0
  0
VERTEX
  8
0
 10
65.0
 20
344.0
 30
0.0
  0
VERTEX
  8
0
 10
65.0
 20
340.0
 30
0.0
  0
VERTEX
  8
0
 10
65.0
 20
336.0
 30
0.0
  0
SEQEND
  8
0
  0
LINE
  8
0
 62
0
 10
65.0
 20
336.0
 30
0.0
 11
495.0
 21
336.0
 31
0.0
  0
LINE
  8
0
 62
0
 10
65.0
 20
344.0
 30
0.0
 11
495.0
 21
344.0
 31
0.0
  0
ENDBLK
  0
BLOCK
  8
0
  2
CYLINDER010
 70
0
 10
0.0
 20
0.0
 30
0.0
  3
CYLINDER010
  0
POLYLINE
  8
0
 62
0
 70
0
 66
1
 10
0.0
 20
0.0
 30
0.0
  0
VERTEX
  8
0
 10
495.0
 20
224.0
 30
0.0
  0
VERTEX
  8
0
 10
495.0
 20
220.0
 30
0.0
  0
VERTEX
  8
0
 10
495.0
 20
216.0
 30
0.0
  0
SEQEND
  8
0
  0
POLYLINE
  8
0
 62
0
 70
0
 66
1
 10
0.0
 20
0.0
 30
0.0
  0
VERTEX
  8
0
 10
65.0
 20
224.0
 30
0.0
  0
VERTEX
  8
0
 10
65.0
 20
220.0
 30
0.0
  0
VERTEX
  8
0
 10
65.0
 20
216.0
 30
0.0
  0
SEQEND
  8
0
  0
LINE
  8
0
 62
0
 10
65.0
 20
216.0
 30
0.0
 11
495.0
 21
216.0
 31
0.0
  0
LINE
  8
0
 62
0
 10
65.0
 20
224.0
 30
0.0
 11
495.0
 21
224.0
 31
0.0
  0
ENDBLK
  0
BLOCK
  8
0
  2
CYLINDER006
 70
0
 10
0.0
 20
0.0
 30
0.0
  3
CYLINDER006
  0
POLYLINE
  8
0
 62
0
 70
0
 66
1
 10
0.0
 20
0.0
 30
0.0
  0
VERTEX
  8
0
 10
495.0
 20
384.0
 30
0.0
  0
VERTEX
  8
0
 10
495.0
 20
380.0
 30
0.0
  0
VERTEX
  8
0
 10
495.0
 20
376.0
 30
0.0
  0
SEQEND
  8
0
  0
POLYLINE
  8
0
 62
0
 70
0
 66
1
 10
0.0
 20
0.0
 30
0.0
  0
VERTEX
  8
0
 10
65.0
 20
384.0
 30
0.0
  0
VERTEX
  8
0
 10
65.0
 20
380.0
 30
0.0
  0
VERTEX
  8
0
 10
65.0
 20
376.0
 30
0.0
  0
SEQEND
  8
0
  0
LINE
  8
0
 62
0
 10
65.0
 20
376.0
 30
0.0
 11
495.0
 21
376.0
 31
0.0
  0
LINE
  8
0
 62
0
 10
65.0
 20
384.0
 30
0.0
 11
495.0
 21
384.0
 31
0.0
  0
ENDBLK
  0
BLOCK
  8
0
  2
CYLINDER011
 70
0
 10
0.0
 20
0.0
 30
0.0
  3
CYLINDER011
  0
POLYLINE
  8
0
 62
0
 70
0
 66
1
 10
0.0
 20
0.0
 30
0.0
  0
VERTEX
  8
0
 10
495.0
 20
184.0
 30
0.0
  0
VERTEX
  8
0
 10
495.0
 20
180.0
 30
0.0
  0
VERTEX
  8
0
 10
495.0
 20
176.0
 30
0.0
  0
SEQEND
  8
0
  0
POLYLINE
  8
0
 62
0
 70
0
 66
1
 10
0.0
 20
0.0
 30
0.0
  0
VERTEX
  8
0
 10
65.0
 20
184.0
 30
0.0
  0
VERTEX
  8
0
 10
65.0
 20
180.0
 30
0.0
  0
VERTEX
  8
0
 10
65.0
 20
176.0
 30
0.0
  0
SEQEND
  8
0
  0
LINE
  8
0
 62
0
 10
65.0
 20
176.0
 30
0.0
 11
495.0
 21
176.0
 31
0.0
  0
LINE
  8
0
 62
0
 10
65.0
 20
184.0
 30
0.0
 11
495.0
 21
184.0
 31
0.0
  0
ENDBLK
  0
BLOCK
  8
0
  2
CYLINDER012
 70
0
 10
0.0
 20
0.0
 30
0.0
  3
CYLINDER012
  0
POLYLINE
  8
0
 62
0
 70
0
 66
1
 10
0.0
 20
0.0
 30
0.0
  0
VERTEX
  8
0
 10
495.0
 20
144.0
 30
0.0
  0
VERTEX
  8
0
 10
495.0
 20
140.0
 30
0.0
  0
VERTEX
  8
0
 10
495.0
 20
136.0
 30
0.0
  0
SEQEND
  8
0
  0
POLYLINE
  8
0
 62
0
 70
0
 66
1
 10
0.0
 20
0.0
 30
0.0
  0
VERTEX
  8
0
 10
65.0
 20
144.0
 30
0.0
  0
VERTEX
  8
0
 10
65.0
 20
140.0
 30
0.0
  0
VERTEX
  8
0
 10
65.0
 20
136.0
 30
0.0
  0
SEQEND
  8
0
  0
LINE
  8
0
 62
0
 10
65.0
 20
136.0
 30
0.0
 11
495.0
 21
136.0
 31
0.0
  0
LINE
  8
0
 62
0
 10
65.0
 20
144.0
 30
0.0
 11
495.0
 21
144.0
 31
0.0
  0
ENDBLK
  0
BLOCK
  8
0
  2
CYLINDER014
 70
0
 10
0.0
 20
0.0
 30
0.0
  3
CYLINDER014
  0
POLYLINE
  8
0
 62
0
 70
0
 66
1
 10
0.0
 20
0.0
 30
0.0
  0
VERTEX
  8
0
 10
495.0
 20
64.0
 30
0.0
  0
VERTEX
  8
0
 10
495.0
 20
60.0
 30
0.0
  0
VERTEX
  8
0
 10
495.0
 20
56.0
 30
0.0
  0
SEQEND
  8
0
  0
POLYLINE
  8
0
 62
0
 70
0
 66
1
 10
0.0
 20
0.0
 30
0.0
  0
VERTEX
  8
0
 10
65.0
 20
64.0
 30
0.0
  0
VERTEX
  8
0
 10
65.0
 20
60.0
 30
0.0
  0
VERTEX
  8
0
 10
65.0
 20
56.0
 30
0.0
  0
SEQEND
  8
0
  0
LINE
  8
0
 62
0
 10
65.0
 20
56.0
 30
0.0
 11
495.0
 21
56.0
 31
0.0
  0
LINE
  8
0
 62
0
 10
65.0
 20
64.0
 30
0.0
 11
495.0
 21
64.0
 31
0.0
  0
ENDBLK
  0
BLOCK
  8
0
  2
CYLINDER005
 70
0
 10
0.0
 20
0.0
 30
0.0
  3
CYLINDER005
  0
POLYLINE
  8
0
 62
0
 70
0
 66
1
 10
0.0
 20
0.0
 30
0.0
  0
VERTEX
  8
0
 10
14.0
 20
270.0
 30
0.0
  0
VERTEX
  8
0
 10
17.017485439812297
 20
270.0
 30
0.0
  0
VERTEX
  8
0
 10
22.982514560187695
 20
270.0
 30
0.0
  0
VERTEX
  8
0
 10
26.0
 20
270.0
 30
0.0
  0
SEQEND
  8
0
  0
LINE
  8
0
 62
0
 10
26.0
 20
170.0
 30
0.0
 11
26.0
 21
270.0
 31
0.0
  0
POLYLINE
  8
0
 62
0
 70
0
 66
1
 10
0.0
 20
0.0
 30
0.0
  0
VERTEX
  8
0
 10
14.0
 20
170.0
 30
0.0
  0
VERTEX
  8
0
 10
17.017485439812297
 20
170.0
 30
0.0
  0
VERTEX
  8
0
 10
22.982514560187695
 20
170.0
 30
0.0
  0
VERTEX
  8
0
 10
26.0
 20
170.0
 30
0.0
  0
SEQEND
  8
0
  0
LINE
  8
0
 62
0
 10
14.0
 20
170.0
 30
0.0
 11
14.0
 21
270.0
 31
0.0
  0
ENDBLK
  0
BLOCK
  8
0
  2
CYLINDER013
 70
0
 10
0.0
 20
0.0
 30
0.0
  3
CYLINDER013
  0
POLYLINE
  8
0
 62
0
 70
0
 66
1
 10
0.0
 20
0.0
 30
0.0
  0
VERTEX
  8
0
 10
495.0
 20
104.0
 30
0.0
  0
VERTEX
  8
0
 10
495.0
 20
100.0
 30
0.0
  0
VERTEX
  8
0
 10
495.0
 20
96.0
 30
0.0
  0
SEQEND
  8
0
  0
POLYLINE
  8
0
 62
0
 70
0
 66
1
 10
0.0
 20
0.0
 30
0.0
  0
VERTEX
  8
0
 10
65.0
 20
104.0
 30
0.0
  0
VERTEX
  8
0
 10
65.0
 20
100.0
 30
0.0
  0
VERTEX
  8
0
 10
65.0
 20
96.0
 30
0.0
  0
SEQEND
  8
0
  0
LINE
  8
0
 62
0
 10
65.0
 20
96.0
 30
0.0
 11
495.0
 21
96.0
 31
0.0
  0
LINE
  8
0
 62
0
 10
65.0
 20
104.0
 30
0.0
 11
495.0
 21
104.0
 31
0.0
  0
ENDBLK
  0
BLOCK
  8
0
  2
EXTRUDE
 70
0
 10
0.0
 20
0.0
 30
0.0
  3
EXTRUDE
  0
LINE
  8
0
 62
0
 10
20.0
 20
20.0
 30
0.0
 11
540.0
 21
20.0
 31
0.0
  0
LINE
  8
0
 62
0
 10
540.0
 20
20.0
 30
0.0
 11
540.0
 21
420.0
 31
0.0
  0
LINE
  8
0
 62
0
 10
540.0
 20
420.0
 30
0.0
 11
20.0
 21
420.0
 31
0.0
  0
LINE
  8
0
 62
0
 10
20.0
 20
420.0
 30
0.0
 11
20.0
 21
20.0
 31
0.0
  0
ENDBLK
  0
BLOCK
  8
0
  2
SPHERE004
 70
0
 10
0.0
 20
0.0
 30
0.0
  3
SPHERE004
  0
POLYLINE
  8
0
 62
0
 70
0
 66
1
 10
0.0
 20
0.0
 30
0.0
  0
VERTEX
  8
0
 10
546.0
 20
170.0
 30
0.0
  0
VERTEX
  8
0
 10
544.2426406871193
 20
170.0
 30
0.0
  0
VERTEX
  8
0
 10
540.0
 20
170.0
 30
0.0
  0
SEQEND
  8
0
  0
CIRCLE
  8
0
 62
0
 10
540.0
 20
170.0
 30
0.0
 40
6.0
  0
ENDBLK
  0
BLOCK
  8
0
  2
SPHERE006
 70
0
 10
0.0
 20
0.0
 30
0.0
  3
SPHERE006
  0
POLYLINE
  8
0
 62
0
 70
0
 66
1
 10
0.0
 20
0.0
 30
0.0
  0
VERTEX
  8
0
 10
26.0
 20
270.0
 30
0.0
  0
VERTEX
  8
0
 10
24.242640687119284
 20
270.0
 30
0.0
  0
VERTEX
  8
0
 10
20.000000000000004
 20
270.0
 30
0.0
  0
SEQEND
  8
0
  0
CIRCLE
  8
0
 62
0
 10
20.0
 20
270.0
 30
0.0
 40
6.0
  0
ENDBLK
  0
BLOCK
  8
0
  2
SPHERE007
 70
0
 10
0.0
 20
0.0
 30
0.0
  3
SPHERE007
  0
POLYLINE
  8
0
 62
0
 70
0
 66
1
 10
0.0
 20
0.0
 30
0.0
  0
VERTEX
  8
0
 10
26.0
 20
170.0
 30
0.0
  0
VERTEX
  8
0
 10
24.242640687119284
 20
170.0
 30
0.0
  0
VERTEX
  8
0
 10
20.000000000000004
 20
170.0
 30
0.0
  0
SEQEND
  8
0
  0
CIRCLE
  8
0
 62
0
 10
20.0
 20
170.0
 30
0.0
 40
6.0
  0
ENDBLK
  0
BLOCK
  8
0
  2
SPHERE005
 70
0
 10
0.0
 20
0.0
 30
0.0
  3
SPHERE005
  0
POLYLINE
  8
0
 62
0
 70
0
 66
1
 10
0.0
 20
0.0
 30
0.0
  0
VERTEX
  8
0
 10
546.0
 20
270.0
 30
0.0
  0
VERTEX
  8
0
 10
544.2426406871193
 20
270.0
 30
0.0
  0
VERTEX
  8
0
 10
540.0
 20
270.0
 30
0.0
  0
SEQEND
  8
0
  0
CIRCLE
  8
0
 62
0
 10
540.0
 20
270.0
 30
0.0
 40
6.0
  0
ENDBLK
  0
BLOCK
  8
0
  2
SPHERE008
 70
0
 10
0.0
 20
0.0
 30
0.0
  3
SPHERE008
  0
POLYLINE
  8
0
 62
0
 70
0
 66
1
 10
0.0
 20
0.0
 30
0.0
  0
VERTEX
  8
0
 10
69.0
 20
380.0
 30
0.0
  0
VERTEX
  8
0
 10
65.0
 20
380.0
 30
0.0
  0
SEQEND
  8
0
  0
CIRCLE
  8
0
 62
0
 10
65.0
 20
380.0
 30
0.0
 40
4.0
  0
ENDBLK
  0
BLOCK
  8
0
  2
SPHERE009
 70
0
 10
0.0
 20
0.0
 30
0.0
  3
SPHERE009
  0
POLYLINE
  8
0
 62
0
 70
0
 66
1
 10
0.0
 20
0.0
 30
0.0
  0
VERTEX
  8
0
 10
499.0
 20
380.0
 30
0.0
  0
VERTEX
  8
0
 10
495.0
 20
380.0
 30
0.0
  0
SEQEND
  8
0
  0
CIRCLE
  8
0
 62
0
 10
495.0
 20
380.0
 30
0.0
 40
4.0
  0
ENDBLK
  0
BLOCK
  8
0
  2
SPHERE015
 70
0
 10
0.0
 20
0.0
 30
0.0
  3
SPHERE015
  0
POLYLINE
  8
0
 62
0
 70
0
 66
1
 10
0.0
 20
0.0
 30
0.0
  0
VERTEX
  8
0
 10
69.0
 20
140.0
 30
0.0
  0
VERTEX
  8
0
 10
65.0
 20
140.0
 30
0.0
  0
SEQEND
  8
0
  0
CIRCLE
  8
0
 62
0
 10
65.0
 20
140.0
 30
0.0
 40
4.0
  0
ENDBLK
  0
BLOCK
  8
0
  2
SPHERE011
 70
0
 10
0.0
 20
0.0
 30
0.0
  3
SPHERE011
  0
POLYLINE
  8
0
 62
0
 70
0
 66
1
 10
0.0
 20
0.0
 30
0.0
  0
VERTEX
  8
0
 10
69.0
 20
300.0
 30
0.0
  0
VERTEX
  8
0
 10
65.0
 20
300.0
 30
0.0
  0
SEQEND
  8
0
  0
CIRCLE
  8
0
 62
0
 10
65.0
 20
300.0
 30
0.0
 40
4.0
  0
ENDBLK
  0
BLOCK
  8
0
  2
SPHERE010
 70
0
 10
0.0
 20
0.0
 30
0.0
  3
SPHERE010
  0
POLYLINE
  8
0
 62
0
 70
0
 66
1
 10
0.0
 20
0.0
 30
0.0
  0
VERTEX
  8
0
 10
69.0
 20
340.0
 30
0.0
  0
VERTEX
  8
0
 10
65.0
 20
340.0
 30
0.0
  0
SEQEND
  8
0
  0
CIRCLE
  8
0
 62
0
 10
65.0
 20
340.0
 30
0.0
 40
4.0
  0
ENDBLK
  0
BLOCK
  8
0
  2
SPHERE014
 70
0
 10
0.0
 20
0.0
 30
0.0
  3
SPHERE014
  0
POLYLINE
  8
0
 62
0
 70
0
 66
1
 10
0.0
 20
0.0
 30
0.0
  0
VERTEX
  8
0
 10
69.0
 20
180.0
 30
0.0
  0
VERTEX
  8
0
 10
65.0
 20
180.0
 30
0.0
  0
SEQEND
  8
0
  0
CIRCLE
  8
0
 62
0
 10
65.0
 20
180.0
 30
0.0
 40
4.0
  0
ENDBLK
  0
BLOCK
  8
0
  2
SPHERE016
 70
0
 10
0.0
 20
0.0
 30
0.0
  3
SPHERE016
  0
POLYLINE
  8
0
 62
0
 70
0
 66
1
 10
0.0
 20
0.0
 30
0.0
  0
VERTEX
  8
0
 10
69.0
 20
100.0
 30
0.0
  0
VERTEX
  8
0
 10
65.0
 20
100.0
 30
0.0
  0
SEQEND
  8
0
  0
CIRCLE
  8
0
 62
0
 10
65.0
 20
100.0
 30
0.0
 40
4.0
  0
ENDBLK
  0
BLOCK
  8
0
  2
SPHERE019
 70
0
 10
0.0
 20
0.0
 30
0.0
  3
SPHERE019
  0
POLYLINE
  8
0
 62
0
 70
0
 66
1
 10
0.0
 20
0.0
 30
0.0
  0
VERTEX
  8
0
 10
499.0
 20
300.0
 30
0.0
  0
VERTEX
  8
0
 10
495.0
 20
300.0
 30
0.0
  0
SEQEND
  8
0
  0
CIRCLE
  8
0
 62
0
 10
495.0
 20
300.0
 30
0.0
 40
4.0
  0
ENDBLK
  0
BLOCK
  8
0
  2
SPHERE018
 70
0
 10
0.0
 20
0.0
 30
0.0
  3
SPHERE018
  0
POLYLINE
  8
0
 62
0
 70
0
 66
1
 10
0.0
 20
0.0
 30
0.0
  0
VERTEX
  8
0
 10
499.0
 20
340.0
 30
0.0
  0
VERTEX
  8
0
 10
495.0
 20
340.0
 30
0.0
  0
SEQEND
  8
0
  0
CIRCLE
  8
0
 62
0
 10
495.0
 20
340.0
 30
0.0
 40
4.0
  0
ENDBLK
  0
BLOCK
  8
0
  2
SPHERE020
 70
0
 10
0.0
 20
0.0
 30
0.0
  3
SPHERE020
  0
POLYLINE
  8
0
 62
0
 70
0
 66
1
 10
0.0
 20
0.0
 30
0.0
  0
VERTEX
  8
0
 10
499.0
 20
260.0
 30
0.0
  0
VERTEX
  8
0
 10
495.0
 20
260.0
 30
0.0
  0
SEQEND
  8
0
  0
CIRCLE
  8
0
 62
0
 10
495.0
 20
260.0
 30
0.0
 40
4.0
  0
ENDBLK
  0
BLOCK
  8
0
  2
SPHERE021
 70
0
 10
0.0
 20
0.0
 30
0.0
  3
SPHERE021
  0
POLYLINE
  8
0
 62
0
 70
0
 66
1
 10
0.0
 20
0.0
 30
0.0
  0
VERTEX
  8
0
 10
499.0
 20
220.0
 30
0.0
  0
VERTEX
  8
0
 10
495.0
 20
220.0
 30
0.0
  0
SEQEND
  8
0
  0
CIRCLE
  8
0
 62
0
 10
495.0
 20
220.0
 30
0.0
 40
4.0
  0
ENDBLK
  0
BLOCK
  8
0
  2
SPHERE022
 70
0
 10
0.0
 20
0.0
 30
0.0
  3
SPHERE022
  0
POLYLINE
  8
0
 62
0
 70
0
 66
1
 10
0.0
 20
0.0
 30
0.0
  0
VERTEX
  8
0
 10
499.0
 20
180.0
 30
0.0
  0
VERTEX
  8
0
 10
495.0
 20
180.0
 30
0.0
  0
SEQEND
  8
0
  0
CIRCLE
  8
0
 62
0
 10
495.0
 20
180.0
 30
0.0
 40
4.0
  0
ENDBLK
  0
BLOCK
  8
0
  2
SPHERE012
 70
0
 10
0.0
 20
0.0
 30
0.0
  3
SPHERE012
  0
POLYLINE
  8
0
 62
0
 70
0
 66
1
 10
0.0
 20
0.0
 30
0.0
  0
VERTEX
  8
0
 10
69.0
 20
260.0
 30
0.0
  0
VERTEX
  8
0
 10
65.0
 20
260.0
 30
0.0
  0
SEQEND
  8
0
  0
CIRCLE
  8
0
 62
0
 10
65.0
 20
260.0
 30
0.0
 40
4.0
  0
ENDBLK
  0
BLOCK
  8
0
  2
SPHERE013
 70
0
 10
0.0
 20
0.0
 30
0.0
  3
SPHERE013
  0
POLYLINE
  8
0
 62
0
 70
0
 66
1
 10
0.0
 20
0.0
 30
0.0
  0
VERTEX
  8
0
 10
69.0
 20
220.0
 30
0.0
  0
VERTEX
  8
0
 10
65.0
 20
220.0
 30
0.0
  0
SEQEND
  8
0
  0
CIRCLE
  8
0
 62
0
 10
65.0
 20
220.0
 30
0.0
 40
4.0
  0
ENDBLK
  0
BLOCK
  8
0
  2
SPHERE017
 70
0
 10
0.0
 20
0.0
 30
0.0
  3
SPHERE017
  0
POLYLINE
  8
0
 62
0
 70
0
 66
1
 10
0.0
 20
0.0
 30
0.0
  0
VERTEX
  8
0
 10
69.0
 20
60.0
 30
0.0
  0
VERTEX
  8
0
 10
65.0
 20
60.0
 30
0.0
  0
SEQEND
  8
0
  0
CIRCLE
  8
0
 62
0
 10
65.0
 20
60.0
 30
0.0
 40
4.0
  0
ENDBLK
  0
BLOCK
  8
0
  2
SPHERE024
 70
0
 10
0.0
 20
0.0
 30
0.0
  3
SPHERE024
  0
POLYLINE
  8
0
 62
0
 70
0
 66
1
 10
0.0
 20
0.0
 30
0.0
  0
VERTEX
  8
0
 10
499.0
 20
100.0
 30
0.0
  0
VERTEX
  8
0
 10
495.0
 20
100.0
 30
0.0
  0
SEQEND
  8
0
  0
CIRCLE
  8
0
 62
0
 10
495.0
 20
100.0
 30
0.0
 40
4.0
  0
ENDBLK
  0
BLOCK
  8
0
  2
SPHERE023
 70
0
 10
0.0
 20
0.0
 30
0.0
  3
SPHERE023
  0
POLYLINE
  8
0
 62
0
 70
0
 66
1
 10
0.0
 20
0.0
 30
0.0
  0
VERTEX
  8
0
 10
499.0
 20
140.0
 30
0.0
  0
VERTEX
  8
0
 10
495.0
 20
140.0
 30
0.0
  0
SEQEND
  8
0
  0
CIRCLE
  8
0
 62
0
 10
495.0
 20
140.0
 30
0.0
 40
4.0
  0
ENDBLK
  0
BLOCK
  8
0
  2
SPHERE025
 70
0
 10
0.0
 20
0.0
 30
0.0
  3
SPHERE025
  0
POLYLINE
  8
0
 62
0
 70
0
 66
1
 10
0.0
 20
0.0
 30
0.0
  0
VERTEX
  8
0
 10
499.0
 20
60.0
 30
0.0
  0
VERTEX
  8
0
 10
495.0
 20
60.0
 30
0.0
  0
SEQEND
  8
0
  0
CIRCLE
  8
0
 62
0
 10
495.0
 20
60.0
 30
0.0
 40
4.0
  0
ENDBLK
  0
BLOCK
  8
0
  2
CUT001
 70
0
 10
0.0
 20
0.0
 30
0.0
  3
CUT001
  0
LINE
  8
0
 62
0
 10
28.0
 20
20.0
 30
0.0
 11
532.0
 21
20.0
 31
0.0
  0
ARC
  8
0
 62
0
 10
28.0
 20
28.0
 30
0.0
 40
8.0
 50
180.0
 51
-90.0
  0
LINE
  8
0
 62
0
 10
20.0
 20
412.0
 30
0.0
 11
20.0
 21
28.0
 31
0.0
  0
ARC
  8
0
 62
0
 10
515.0
 20
395.0
 30
0.0
 40
5.0
 50
-0.0
 51
90.0
  0
LINE
  8
0
 62
0
 10
45.0
 20
400.0
 30
0.0
 11
515.0000000000001
 21
400.0
 31
0.0
  0
ARC
  8
0
 62
0
 10
45.0
 20
395.0
 30
0.0
 40
5.0
 50
90.0
 51
-180.0
  0
LINE
  8
0
 62
0
 10
40.0
 20
45.0
 30
0.0
 11
40.0
 21
395.00000000000006
 31
0.0
  0
ARC
  8
0
 62
0
 10
45.0
 20
45.0
 30
0.0
 40
5.0
 50
-180.0
 51
-90.0
  0
LINE
  8
0
 62
0
 10
45.0
 20
40.0
 30
0.0
 11
515.0000000000001
 21
40.0
 31
0.0
  0
ARC
  8
0
 62
0
 10
515.0
 20
45.0
 30
0.0
 40
5.0
 50
-90.0
 51
-0.0
  0
LINE
  8
0
 62
0
 10
520.0
 20
45.0
 30
0.0
 11
520.0
 21
395.0
 31
0.0
  0
ARC
  8
0
 62
0
 10
532.0
 20
28.0
 30
0.0
 40
8.0
 50
-90.0
 51
0.0
  0
LINE
  8
0
 62
0
 10
540.0
 20
28.0
 30
0.0
 11
540.0
 21
412.0
 31
0.0
  0
ARC
  8
0
 62
0
 10
28.0
 20
412.0
 30
0.0
 40
8.0
 50
90.0
 51
-180.0
  0
ARC
  8
0
 62
0
 10
532.0
 20
412.0
 30
0.0
 40
8.0
 50
-0.0
 51
90.0
  0
LINE
  8
0
 62
0
 10
532.0
 20
420.0
 30
0.0
 11
28.0
 21
420.0
 31
0.0
  0
POLYLINE
  8
0
 62
0
 70
0
 66
1
 10
0.0
 20
0.0
 30
0.0
  0
VERTEX
  8
0
 10
520.0
 20
395.0
 30
0.0
  0
VERTEX
  8
0
 10
515.0000000000001
 20
395.0
 30
0.0
  0
SEQEND
  8
0
  0
POLYLINE
  8
0
 62
0
 70
0
 66
1
 10
0.0
 20
0.0
 30
0.0
  0
VERTEX
  8
0
 10
515.0
 20
395.0
 30
0.0
  0
VERTEX
  8
0
 10
515.0
 20
400.0
 30
0.0
  0
SEQEND
  8
0
  0
POLYLINE
  8
0
 62
0
 70
0
 66
1
 10
0.0
 20
0.0
 30
0.0
  0
VERTEX
  8
0
 10
45.0
 20
395.0
 30
0.0
  0
VERTEX
  8
0
 10
45.0
 20
400.0
 30
0.0
  0
SEQEND
  8
0
  0
POLYLINE
  8
0
 62
0
 70
0
 66
1
 10
0.0
 20
0.0
 30
0.0
  0
VERTEX
  8
0
 10
45.0
 20
395.0
 30
0.0
  0
VERTEX
  8
0
 10
40.0
 20
395.0
 30
0.0
  0
SEQEND
  8
0
  0
POLYLINE
  8
0
 62
0
 70
0
 66
1
 10
0.0
 20
0.0
 30
0.0
  0
VERTEX
  8
0
 10
45.0
 20
45.0
 30
0.0
  0
VERTEX
  8
0
 10
40.0
 20
45.0
 30
0.0
  0
SEQEND
  8
0
  0
POLYLINE
  8
0
 62
0
 70
0
 66
1
 10
0.0
 20
0.0
 30
0.0
  0
VERTEX
  8
0
 10
50.0
 20
50.0
 30
0.0
  0
VERTEX
  8
0
 10
48.53553390355441
 20
48.53553390355441
 30
0.0
  0
VERTEX
  8
0
 10
44.99999999327308
 20
44.99999999327308
 30
0.0
  0
SEQEND
  8
0
  0
LINE
  8
0
 62
0
 10
50.0
 20
50.0
 30
0.0
 11
50.0
 21
390.0
 31
0.0
  0
POLYLINE
  8
0
 62
0
 70
0
 66
1
 10
0.0
 20
0.0
 30
0.0
  0
VERTEX
  8
0
 10
50.0
 20
390.0
 30
0.0
  0
VERTEX
  8
0
 10
48.535534062307455
 20
391.4644659376925
 30
0.0
  0
VERTEX
  8
0
 10
45.000000442294585
 20
394.9999995577054
 30
0.0
  0
SEQEND
  8
0
  0
POLYLINE
  8
0
 62
0
 70
0
 66
1
 10
0.0
 20
0.0
 30
0.0
  0
VERTEX
  8
0
 10
45.0
 20
40.0
 30
0.0
  0
VERTEX
  8
0
 10
45.0
 20
45.0
 30
0.0
  0
SEQEND
  8
0
  0
POLYLINE
  8
0
 62
0
 70
0
 66
1
 10
0.0
 20
0.0
 30
0.0
  0
VERTEX
  8
0
 10
515.0
 20
40.0
 30
0.0
  0
VERTEX
  8
0
 10
515.0
 20
45.0
 30
0.0
  0
SEQEND
  8
0
  0
POLYLINE
  8
0
 62
0
 70
0
 66
1
 10
0.0
 20
0.0
 30
0.0
  0
VERTEX
  8
0
 10
515.0
 20
45.0
 30
0.0
  0
VERTEX
  8
0
 10
520.0
 20
45.0
 30
0.0
  0
SEQEND
  8
0
  0
POLYLINE
  8
0
 62
0
 70
0
 66
1
 10
0.0
 20
0.0
 30
0.0
  0
VERTEX
  8
0
 10
510.0
 20
390.0
 30
0.0
  0
VERTEX
  8
0
 10
511.4644660577439
 20
391.4644660577439
 30
0.0
  0
VERTEX
  8
0
 10
514.999999897262
 20
394.999999897262
 30
0.0
  0
SEQEND
  8
0
  0
LINE
  8
0
 62
0
 10
510.0
 20
50.0
 30
0.0
 11
510.0
 21
390.0
 31
0.0
  0
POLYLINE
  8
0
 62
0
 70
0
 66
1
 10
0.0
 20
0.0
 30
0.0
  0
VERTEX
  8
0
 10
515.0
 20
45.0
 30
0.0
  0
VERTEX
  8
0
 10
511.46446609406723
 20
48.53553390593274
 30
0.0
  0
VERTEX
  8
0
 10
510.0
 20
50.0
 30
0.0
  0
SEQEND
  8
0
  0
LINE
  8
0
 62
0
 10
50.0
 20
390.0
 30
0.0
 11
510.0
 21
390.0
 31
0.0
  0
LINE
  8
0
 62
0
 10
50.0
 20
50.0
 30
0.0
 11
510.0
 21
50.0
 31
0.0
  0
ARC
  8
0
 62
0
 10
28.0
 20
28.0
 30
0.0
 40
8.0
 50
180.0
 51
-90.0
  0
POLYLINE
  8
0
 62
0
 70
0
 66
1
 10
0.0
 20
0.0
 30
0.0
  0
VERTEX
  8
0
 10
28.0
 20
23.0
 30
0.0
  0
VERTEX
  8
0
 10
28.0
 20
20.0
 30
0.0
  0
SEQEND
  8
0
  0
LINE
  8
0
 62
0
 10
28.0
 20
23.0
 30
0.0
 11
532.0
 21
23.0
 31
0.0
  0
POLYLINE
  8
0
 62
0
 70
0
 66
1
 10
0.0
 20
0.0
 30
0.0
  0
VERTEX
  8
0
 10
532.0
 20
23.0
 30
0.0
  0
VERTEX
  8
0
 10
532.0
 20
20.0
 30
0.0
  0
SEQEND
  8
0
  0
ARC
  8
0
 62
0
 10
532.0
 20
28.0
 30
0.0
 40
8.0
 50
-90.0
 51
0.0
  0
ARC
  8
0
 62
0
 10
28.0
 20
28.0
 30
0.0
 40
5.0
 50
180.0
 51
-90.0
  0
POLYLINE
  8
0
 62
0
 70
0
 66
1
 10
0.0
 20
0.0
 30
0.0
  0
VERTEX
  8
0
 10
23.0
 20
28.0
 30
0.0
  0
VERTEX
  8
0
 10
20.0
 20
28.0
 30
0.0
  0
SEQEND
  8
0
  0
ARC
  8
0
 62
0
 10
532.0
 20
28.0
 30
0.0
 40
5.0
 50
-90.0
 51
0.0
  0
LINE
  8
0
 62
0
 10
23.0
 20
412.0
 30
0.0
 11
23.0
 21
28.0
 31
0.0
  0
LINE
  8
0
 62
0
 10
537.0
 20
28.0
 30
0.0
 11
537.0
 21
412.0
 31
0.0
  0
ARC
  8
0
 62
0
 10
28.0
 20
412.0
 30
0.0
 40
5.0
 50
90.0
 51
-180.0
  0
ARC
  8
0
 62
0
 10
532.0
 20
412.0
 30
0.0
 40
5.0
 50
-0.0
 51
90.0
  0
LINE
  8
0
 62
0
 10
532.0
 20
417.0
 30
0.0
 11
28.0
 21
417.0
 31
0.0
  0
POLYLINE
  8
0
 62
0
 70
0
 66
1
 10
0.0
 20
0.0
 30
0.0
  0
VERTEX
  8
0
 10
537.0
 20
28.0
 30
0.0
  0
VERTEX
  8
0
 10
540.0
 20
28.0
 30
0.0
  0
SEQEND
  8
0
  0
POLYLINE
  8
0
 62
0
 70
0
 66
1
 10
0.0
 20
0.0
 30
0.0
  0
VERTEX
  8
0
 10
23.0
 20
412.0
 30
0.0
  0
VERTEX
  8
0
 10
20.0
 20
412.0
 30
0.0
  0
SEQEND
  8
0
  0
ARC
  8
0
 62
0
 10
28.0
 20
412.0
 30
0.0
 40
8.0
 50
90.0
 51
-180.0
  0
POLYLINE
  8
0
 62
0
 70
0
 66
1
 10
0.0
 20
0.0
 30
0.0
  0
VERTEX
  8
0
 10
537.0
 20
412.0
 30
0.0
  0
VERTEX
  8
0
 10
540.0
 20
412.0
 30
0.0
  0
SEQEND
  8
0
  0
POLYLINE
  8
0
 62
0
 70
0
 66
1
 10
0.0
 20
0.0
 30
0.0
  0
VERTEX
  8
0
 10
28.0
 20
417.0
 30
0.0
  0
VERTEX
  8
0
 10
28.0
 20
420.0
 30
0.0
  0
SEQEND
  8
0
  0
POLYLINE
  8
0
 62
0
 70
0
 66
1
 10
0.0
 20
0.0
 30
0.0
  0
VERTEX
  8
0
 10
532.0
 20
417.0
 30
0.0
  0
VERTEX
  8
0
 10
532.0
 20
420.0
 30
0.0
  0
SEQEND
  8
0
  0
LINE
  8
0
 62
0
 10
45.0
 20
395.0
 30
0.0
 11
515.0
 21
395.0
 31
0.0
  0
LINE
  8
0
 62
0
 10
45.0
 20
45.0
 30
0.0
 11
515.0
 21
45.0
 31
0.0
  0
ENDBLK
  0
ENDSEC
  0
SECTION
  2
ENTITIES
  0
INSERT
  2
SPHERE002
  8
0
 62
0
 10
0.0
 20
0.0
 30
0.0
  0
INSERT
  2
SPHERE
  8
0
 62
0
 10
0.0
 20
0.0
 30
0.0
  0
INSERT
  2
SPHERE001
  8
0
 62
0
 10
0.0
 20
0.0
 30
0.0
  0
INSERT
  2
SPHERE003
  8
0
 62
0
 10
0.0
 20
0.0
 30
0.0
  0
POLYLINE
  8
VectorRunoffRidgeCut
 62
0
 70
0
 66
1
 10
0.0
 20
0.0
 30
0.0
  0
VERTEX
  8
VectorRunoffRidgeCut
 10
65.0
 20
380.0
 30
26.0
  0
VERTEX
  8
VectorRunoffRidgeCut
 10
495.0
 20
380.0
 30
26.0
  0
SEQEND
  8
VectorRunoffRidgeCut
  0
POLYLINE
  8
VectorRunoffRidgeCut
 62
0
 70
0
 66
1
 10
0.0
 20
0.0
 30
0.0
  0
VERTEX
  8
VectorRunoffRidgeCut
 10
65.0
 20
60.0
 30
26.0
  0
VERTEX
  8
VectorRunoffRidgeCut
 10
495.0
 20
59.999999999999986
 30
26.0
  0
SEQEND
  8
VectorRunoffRidgeCut
  0
POLYLINE
  8
VectorRunoffRidgeCut
 62
0
 70
0
 66
1
 10
0.0
 20
0.0
 30
0.0
  0
VERTEX
  8
VectorRunoffRidgeCut
 10
65.0
 20
300.0
 30
26.0
  0
VERTEX
  8
VectorRunoffRidgeCut
 10
495.0
 20
300.0
 30
26.0
  0
SEQEND
  8
VectorRunoffRidgeCut
  0
POLYLINE
  8
VectorRunoffRidgeCut
 62
0
 70
0
 66
1
 10
0.0
 20
0.0
 30
0.0
  0
VERTEX
  8
VectorRunoffRidgeCut
 10
65.0
 20
340.0
 30
26.0
  0
VERTEX
  8
VectorRunoffRidgeCut
 10
495.0
 20
340.0
 30
26.0
  0
SEQEND
  8
VectorRunoffRidgeCut
  0
POLYLINE
  8
VectorRunoffRidgeCut
 62
0
 70
0
 66
1
 10
0.0
 20
0.0
 30
0.0
  0
VERTEX
  8
VectorRunoffRidgeCut
 10
65.0
 20
180.0
 30
26.0
  0
VERTEX
  8
VectorRunoffRidgeCut
 10
495.0
 20
180.0
 30
26.0
  0
SEQEND
  8
VectorRunoffRidgeCut
  0
POLYLINE
  8
VectorRunoffRidgeCut
 62
0
 70
0
 66
1
 10
0.0
 20
0.0
 30
0.0
  0
VERTEX
  8
VectorRunoffRidgeCut
 10
65.0
 20
140.0
 30
26.0
  0
VERTEX
  8
VectorRunoffRidgeCut
 10
495.0
 20
140.0
 30
26.0
  0
SEQEND
  8
VectorRunoffRidgeCut
  0
POLYLINE
  8
VectorRunoffRidgeCut
 62
0
 70
0
 66
1
 10
0.0
 20
0.0
 30
0.0
  0
VERTEX
  8
VectorRunoffRidgeCut
 10
65.0
 20
260.0
 30
26.0
  0
VERTEX
  8
VectorRunoffRidgeCut
 10
495.0
 20
260.0
 30
26.0
  0
SEQEND
  8
VectorRunoffRidgeCut
  0
POLYLINE
  8
VectorRunoffRidgeCut
 62
0
 70
0
 66
1
 10
0.0
 20
0.0
 30
0.0
  0
VERTEX
  8
VectorRunoffRidgeCut
 10
65.0
 20
100.0
 30
26.0
  0
VERTEX
  8
VectorRunoffRidgeCut
 10
495.0
 20
100.0
 30
26.0
  0
SEQEND
  8
VectorRunoffRidgeCut
  0
POLYLINE
  8
VectorRunoffRidgeCut
 62
0
 70
0
 66
1
 10
0.0
 20
0.0
 30
0.0
  0
VERTEX
  8
VectorRunoffRidgeCut
 10
65.0
 20
220.0
 30
26.0
  0
VERTEX
  8
VectorRunoffRidgeCut
 10
495.0
 20
220.0
 30
26.0
  0
SEQEND
  8
VectorRunoffRidgeCut
  0
POLYLINE
  8
TopOperation
 62
0
 70
1
 66
1
 10
0.0
 20
0.0
 30
0.0
  0
VERTEX
  8
TopOperation
 10
45.0
 20
45.0
 30
25.0
  0
VERTEX
  8
TopOperation
 10
515.0
 20
45.0
 30
25.0
  0
VERTEX
  8
TopOperation
 10
515.0
 20
395.0
 30
25.0
  0
VERTEX
  8
TopOperation
 10
45.0
 20
395.0
 30
25.0
  0
SEQEND
  8
TopOperation
  0
POLYLINE
  8
0
 62
0
 70
1
 66
1
 10
0.0
 20
0.0
 30
0.0
  0
VERTEX
  8
0
 10
20.0
 20
20.0
 30
30.0
  0
VERTEX
  8
0
 10
540.0
 20
20.0
 30
30.0
  0
VERTEX
  8
0
 10
540.0
 20
420.0
 30
30.0
  0
VERTEX
  8
0
 10
20.0
 20
420.0
 30
30.0
  0
SEQEND
  8
0
  0
POLYLINE
  8
VectorRoundoverCorners
 62
0
 70
0
 66
1
 10
0.0
 20
0.0
 30
0.0
  0
VERTEX
  8
VectorRoundoverCorners
 10
540.0
 20
28.0
 30
0.0
  0
VERTEX
  8
VectorRoundoverCorners
 10
540.0
 20
412.0
 30
0.0
  0
SEQEND
  8
VectorRoundoverCorners
  0
ARC
  8
VectorRoundoverCorners
 62
0
 10
28.0004
 20
27.9993
 30
0.0
 40
7.999320994892539
 50
179.99745927176215
 51
-90.00300553833323
  0
POLYLINE
  8
CutOut
 62
0
 70
1
 66
1
 10
0.0
 20
0.0
 30
0.0
  0
VERTEX
  8
CutOut
 10
20.0
 20
20.0
 30
0.0
  0
VERTEX
  8
CutOut
 10
540.0
 20
20.0
 30
0.0
  0
VERTEX
  8
CutOut
 10
540.0
 20
420.0
 30
0.0
  0
VERTEX
  8
CutOut
 10
20.0
 20
420.0
 30
0.0
  0
SEQEND
  8
CutOut
  0
ARC
  8
VectorRoundoverCorners
 62
0
 10
532.0
 20
412.0
 30
0.0
 40
7.999320994892539
 50
-0.0
 51
90.0
  0
ARC
  8
VectorRoundoverCorners
 62
0
 10
28.0
 20
412.0
 30
0.0
 40
7.999320994892539
 50
90.0
 51
-180.0
  0
POLYLINE
  8
VectorRoundoverCorners
 62
0
 70
0
 66
1
 10
0.0
 20
0.0
 30
0.0
  0
VERTEX
  8
VectorRoundoverCorners
 10
28.0
 20
20.0
 30
0.0
  0
VERTEX
  8
VectorRoundoverCorners
 10
532.0
 20
19.99999999999998
 30
0.0
  0
SEQEND
  8
VectorRoundoverCorners
  0
POLYLINE
  8
VectorRoundoverCorners
 62
0
 70
0
 66
1
 10
0.0
 20
0.0
 30
0.0
  0
VERTEX
  8
VectorRoundoverCorners
 10
20.0
 20
28.0
 30
0.0
  0
VERTEX
  8
VectorRoundoverCorners
 10
20.000000000000018
 20
412.0
 30
0.0
  0
SEQEND
  8
VectorRoundoverCorners
  0
ARC
  8
VectorRoundoverCorners
 62
0
 10
532.0
 20
28.0
 30
0.0
 40
7.999320994892539
 50
-90.0
 51
-0.0
  0
POLYLINE
  8
VectorRoundoverCorners
 62
0
 70
0
 66
1
 10
0.0
 20
0.0
 30
0.0
  0
VERTEX
  8
VectorRoundoverCorners
 10
28.0
 20
420.0
 30
0.0
  0
VERTEX
  8
VectorRoundoverCorners
 10
532.0
 20
420.0
 30
0.0
  0
SEQEND
  8
VectorRoundoverCorners
  0
INSERT
  2
FUSION007
  8
0
 62
0
 10
0.0
 20
0.0
 30
0.0
  0
INSERT
  2
FUSION010
  8
0
 62
0
 10
0.0
 20
0.0
 30
0.0
  0
INSERT
  2
FUSION005
  8
0
 62
0
 10
0.0
 20
0.0
 30
0.0
  0
INSERT
  2
FUSION012
  8
0
 62
0
 10
0.0
 20
0.0
 30
0.0
  0
INSERT
  2
FUSION013
  8
0
 62
0
 10
0.0
 20
0.0
 30
0.0
  0
INSERT
  2
FUSION009
  8
0
 62
0
 10
0.0
 20
0.0
 30
0.0
  0
INSERT
  2
FUSION001
  8
0
 62
0
 10
0.0
 20
0.0
 30
0.0
  0
INSERT
  2
FUSION
  8
0
 62
0
 10
0.0
 20
0.0
 30
0.0
  0
INSERT
  2
FUSION004
  8
0
 62
0
 10
0.0
 20
0.0
 30
0.0
  0
INSERT
  2
FUSION008
  8
0
 62
0
 10
0.0
 20
0.0
 30
0.0
  0
INSERT
  2
FUSION003
  8
0
 62
0
 10
0.0
 20
0.0
 30
0.0
  0
INSERT
  2
FUSION011
  8
0
 62
0
 10
0.0
 20
0.0
 30
0.0
  0
INSERT
  2
FUSION002
  8
0
 62
0
 10
0.0
 20
0.0
 30
0.0
  0
INSERT
  2
FUSION006
  8
0
 62
0
 10
0.0
 20
0.0
 30
0.0
  0
INSERT
  2
CUT
  8
0
 62
0
 10
0.0
 20
0.0
 30
0.0
  0
INSERT
  2
BOX
  8
3D_Object
 62
0
 10
0.0
 20
0.0
 30
0.0
  0
INSERT
  2
CUT002
  8
3D_Object
 62
18
 10
0.0
 20
0.0
 30
0.0
  0
INSERT
  2
FILLET
  8
0
 62
0
 10
0.0
 20
0.0
 30
0.0
  0
INSERT
  2
CYLINDER008
  8
0
 62
0
 10
0.0
 20
0.0
 30
0.0
  0
INSERT
  2
CYLINDER009
  8
0
 62
0
 10
0.0
 20
0.0
 30
0.0
  0
INSERT
  2
CYLINDER
  8
0
 62
0
 10
0.0
 20
0.0
 30
0.0
  0
INSERT
  2
CYLINDER002
  8
0
 62
0
 10
0.0
 20
0.0
 30
0.0
  0
INSERT
  2
CYLINDER003
  8
0
 62
0
 10
0.0
 20
0.0
 30
0.0
  0
INSERT
  2
CYLINDER001
  8
0
 62
0
 10
0.0
 20
0.0
 30
0.0
  0
INSERT
  2
CYLINDER004
  8
0
 62
0
 10
0.0
 20
0.0
 30
0.0
  0
INSERT
  2
CYLINDER007
  8
0
 62
0
 10
0.0
 20
0.0
 30
0.0
  0
INSERT
  2
CYLINDER010
  8
0
 62
0
 10
0.0
 20
0.0
 30
0.0
  0
INSERT
  2
CYLINDER006
  8
0
 62
0
 10
0.0
 20
0.0
 30
0.0
  0
INSERT
  2
CYLINDER011
  8
0
 62
0
 10
0.0
 20
0.0
 30
0.0
  0
INSERT
  2
CYLINDER012
  8
0
 62
0
 10
0.0
 20
0.0
 30
0.0
  0
INSERT
  2
CYLINDER014
  8
0
 62
0
 10
0.0
 20
0.0
 30
0.0
  0
INSERT
  2
CYLINDER005
  8
0
 62
0
 10
0.0
 20
0.0
 30
0.0
  0
INSERT
  2
CYLINDER013
  8
0
 62
0
 10
0.0
 20
0.0
 30
0.0
  0
INSERT
  2
EXTRUDE
  8
0
 62
0
 10
0.0
 20
0.0
 30
0.0
  0
INSERT
  2
SPHERE004
  8
0
 62
0
 10
0.0
 20
0.0
 30
0.0
  0
INSERT
  2
SPHERE006
  8
0
 62
0
 10
0.0
 20
0.0
 30
0.0
  0
INSERT
  2
SPHERE007
  8
0
 62
0
 10
0.0
 20
0.0
 30
0.0
  0
INSERT
  2
SPHERE005
  8
0
 62
0
 10
0.0
 20
0.0
 30
0.0
  0
INSERT
  2
SPHERE008
  8
0
 62
0
 10
0.0
 20
0.0
 30
0.0
  0
INSERT
  2
SPHERE009
  8
0
 62
0
 10
0.0
 20
0.0
 30
0.0
  0
INSERT
  2
SPHERE015
  8
0
 62
0
 10
0.0
 20
0.0
 30
0.0
  0
INSERT
  2
SPHERE011
  8
0
 62
0
 10
0.0
 20
0.0
 30
0.0
  0
INSERT
  2
SPHERE010
  8
0
 62
0
 10
0.0
 20
0.0
 30
0.0
  0
INSERT
  2
SPHERE014
  8
0
 62
0
 10
0.0
 20
0.0
 30
0.0
  0
INSERT
  2
SPHERE016
  8
0
 62
0
 10
0.0
 20
0.0
 30
0.0
  0
INSERT
  2
SPHERE019
  8
0
 62
0
 10
0.0
 20
0.0
 30
0.0
  0
INSERT
  2
SPHERE018
  8
0
 62
0
 10
0.0
 20
0.0
 30
0.0
  0
INSERT
  2
SPHERE020
  8
0
 62
0
 10
0.0
 20
0.0
 30
0.0
  0
INSERT
  2
SPHERE021
  8
0
 62
0
 10
0.0
 20
0.0
 30
0.0
  0
INSERT
  2
SPHERE022
  8
0
 62
0
 10
0.0
 20
0.0
 30
0.0
  0
INSERT
  2
SPHERE012
  8
0
 62
0
 10
0.0
 20
0.0
 30
0.0
  0
INSERT
  2
SPHERE013
  8
0
 62
0
 10
0.0
 20
0.0
 30
0.0
  0
INSERT
  2
SPHERE017
  8
0
 62
0
 10
0.0
 20
0.0
 30
0.0
  0
INSERT
  2
SPHERE024
  8
0
 62
0
 10
0.0
 20
0.0
 30
0.0
  0
INSERT
  2
SPHERE023
  8
0
 62
0
 10
0.0
 20
0.0
 30
0.0
  0
INSERT
  2
SPHERE025
  8
0
 62
0
 10
0.0
 20
0.0
 30
0.0
  0
INSERT
  2
CUT001
  8
0
 62
0
 10
0.0
 20
0.0
 30
0.0
  0
ENDSEC
  0
EOF
