  0
SECTION
  2
HEADER
  9
$ACADVER
  1
AC1009
  9
$INSBASE
 10
0.0
 20
0.0
 30
0.0
  9
$EXTMIN
 10
0.0
 20
0.0
 30
0.0
  9
$EXTMAX
 10
0.0
 20
0.0
 30
0.0
  0
ENDSEC
  0
SECTION
  2
TABLES
  0
TABLE
  2
VPORT
 70
0
  0
ENDTAB
  0
TABLE
  2
LTYPE
 70
1
  0
LTYPE
  2
CONTINUOUS
 70
0
  3
Solid line
 72
65
 73
0
 40
0.0
  0
ENDTAB
  0
TABLE
  2
LAYER
 70
1
  0
LAYER
  2
0
 70
64
 62
7
  6
continuous
  0
ENDTAB
  0
TABLE
  2
STYLE
 70
1
  0
STYLE
  2
STANDARD
 70
0
 40
0
 41
1.0
 50
0.0
 71
0
 42
1
 3
ARIAL.TTF
 4

  0
ENDTAB
  0
TABLE
  2
VIEW
 70
0
  0
ENDTAB
  0
ENDSEC
  0
SECTION
  2
BLOCKS
  0
BLOCK
  8
3D_Object
  2
CUT002
 70
0
 10
0.0
 20
0.0
 30
0.0
  3
CUT002
  0
LINE
  8
3D_Object
 62
18
 10
28.0
 20
20.0
 30
0.0
 11
532.0
 21
20.0
 31
0.0
  0
ARC
  8
3D_Object
 62
18
 10
28.0
 20
28.0
 30
0.0
 40
8.0
 50
180.0
 51
-90.0
  0
LINE
  8
3D_Object
 62
18
 10
20.0
 20
412.0
 30
0.0
 11
20.0
 21
28.0
 31
0.0
  0
ARC
  8
3D_Object
 62
18
 10
515.0
 20
395.0
 30
0.0
 40
5.0
 50
-0.0
 51
90.0
  0
LINE
  8
3D_Object
 62
18
 10
45.0
 20
400.0
 30
0.0
 11
515.0000000000001
 21
400.0
 31
0.0
  0
ARC
  8
3D_Object
 62
18
 10
45.0
 20
395.0
 30
0.0
 40
5.0
 50
90.0
 51
-180.0
  0
LINE
  8
3D_Object
 62
18
 10
40.0
 20
45.0
 30
0.0
 11
40.0
 21
395.00000000000006
 31
0.0
  0
ARC
  8
3D_Object
 62
18
 10
45.0
 20
45.0
 30
0.0
 40
5.0
 50
-180.0
 51
-90.0
  0
LINE
  8
3D_Object
 62
18
 10
45.0
 20
40.0
 30
0.0
 11
515.0000000000001
 21
40.0
 31
0.0
  0
ARC
  8
3D_Object
 62
18
 10
515.0
 20
45.0
 30
0.0
 40
5.0
 50
-90.0
 51
-0.0
  0
LINE
  8
3D_Object
 62
18
 10
520.0
 20
45.0
 30
0.0
 11
520.0
 21
395.0
 31
0.0
  0
ARC
  8
3D_Object
 62
18
 10
532.0
 20
28.0
 30
0.0
 40
8.0
 50
-90.0
 51
0.0
  0
LINE
  8
3D_Object
 62
18
 10
540.0
 20
28.0
 30
0.0
 11
540.0
 21
412.0
 31
0.0
  0
ARC
  8
3D_Object
 62
18
 10
28.0
 20
412.0
 30
0.0
 40
8.0
 50
90.0
 51
-180.0
  0
ARC
  8
3D_Object
 62
18
 10
532.0
 20
412.0
 30
0.0
 40
8.0
 50
-0.0
 51
90.0
  0
LINE
  8
3D_Object
 62
18
 10
532.0
 20
420.0
 30
0.0
 11
28.0
 21
420.0
 31
0.0
  0
POLYLINE
  8
3D_Object
 62
18
 70
0
 66
1
 10
0.0
 20
0.0
 30
0.0
  0
VERTEX
  8
3D_Object
 10
520.0
 20
395.0
 30
0.0
  0
VERTEX
  8
3D_Object
 10
515.0000000000001
 20
395.0
 30
0.0
  0
SEQEND
  8
3D_Object
  0
POLYLINE
  8
3D_Object
 62
18
 70
0
 66
1
 10
0.0
 20
0.0
 30
0.0
  0
VERTEX
  8
3D_Object
 10
515.0
 20
395.0
 30
0.0
  0
VERTEX
  8
3D_Object
 10
515.0
 20
400.0
 30
0.0
  0
SEQEND
  8
3D_Object
  0
POLYLINE
  8
3D_Object
 62
18
 70
0
 66
1
 10
0.0
 20
0.0
 30
0.0
  0
VERTEX
  8
3D_Object
 10
45.0
 20
395.0
 30
0.0
  0
VERTEX
  8
3D_Object
 10
45.0
 20
400.0
 30
0.0
  0
SEQEND
  8
3D_Object
  0
POLYLINE
  8
3D_Object
 62
18
 70
0
 66
1
 10
0.0
 20
0.0
 30
0.0
  0
VERTEX
  8
3D_Object
 10
45.0
 20
395.0
 30
0.0
  0
VERTEX
  8
3D_Object
 10
40.0
 20
395.0
 30
0.0
  0
SEQEND
  8
3D_Object
  0
POLYLINE
  8
3D_Object
 62
18
 70
0
 66
1
 10
0.0
 20
0.0
 30
0.0
  0
VERTEX
  8
3D_Object
 10
45.0
 20
45.0
 30
0.0
  0
VERTEX
  8
3D_Object
 10
40.0
 20
45.0
 30
0.0
  0
SEQEND
  8
3D_Object
  0
POLYLINE
  8
3D_Object
 62
18
 70
0
 66
1
 10
0.0
 20
0.0
 30
0.0
  0
VERTEX
  8
3D_Object
 10
50.0
 20
50.0
 30
0.0
  0
VERTEX
  8
3D_Object
 10
48.53553390355441
 20
48.53553390355441
 30
0.0
  0
VERTEX
  8
3D_Object
 10
44.99999999327308
 20
44.99999999327308
 30
0.0
  0
SEQEND
  8
3D_Object
  0
LINE
  8
3D_Object
 62
18
 10
50.0
 20
50.0
 30
0.0
 11
50.0
 21
390.0
 31
0.0
  0
POLYLINE
  8
3D_Object
 62
18
 70
0
 66
1
 10
0.0
 20
0.0
 30
0.0
  0
VERTEX
  8
3D_Object
 10
50.0
 20
390.0
 30
0.0
  0
VERTEX
  8
3D_Object
 10
48.535534062307455
 20
391.4644659376925
 30
0.0
  0
VERTEX
  8
3D_Object
 10
45.000000442294585
 20
394.9999995577054
 30
0.0
  0
SEQEND
  8
3D_Object
  0
POLYLINE
  8
3D_Object
 62
18
 70
0
 66
1
 10
0.0
 20
0.0
 30
0.0
  0
VERTEX
  8
3D_Object
 10
45.0
 20
40.0
 30
0.0
  0
VERTEX
  8
3D_Object
 10
45.0
 20
45.0
 30
0.0
  0
SEQEND
  8
3D_Object
  0
POLYLINE
  8
3D_Object
 62
18
 70
0
 66
1
 10
0.0
 20
0.0
 30
0.0
  0
VERTEX
  8
3D_Object
 10
515.0
 20
40.0
 30
0.0
  0
VERTEX
  8
3D_Object
 10
515.0
 20
45.0
 30
0.0
  0
SEQEND
  8
3D_Object
  0
POLYLINE
  8
3D_Object
 62
18
 70
0
 66
1
 10
0.0
 20
0.0
 30
0.0
  0
VERTEX
  8
3D_Object
 10
515.0
 20
45.0
 30
0.0
  0
VERTEX
  8
3D_Object
 10
520.0
 20
45.0
 30
0.0
  0
SEQEND
  8
3D_Object
  0
POLYLINE
  8
3D_Object
 62
18
 70
0
 66
1
 10
0.0
 20
0.0
 30
0.0
  0
VERTEX
  8
3D_Object
 10
510.0
 20
390.0
 30
0.0
  0
VERTEX
  8
3D_Object
 10
511.4644660577439
 20
391.4644660577439
 30
0.0
  0
VERTEX
  8
3D_Object
 10
514.999999897262
 20
394.999999897262
 30
0.0
  0
SEQEND
  8
3D_Object
  0
LINE
  8
3D_Object
 62
18
 10
510.0
 20
50.0
 30
0.0
 11
510.0
 21
390.0
 31
0.0
  0
POLYLINE
  8
3D_Object
 62
18
 70
0
 66
1
 10
0.0
 20
0.0
 30
0.0
  0
VERTEX
  8
3D_Object
 10
515.0
 20
45.0
 30
0.0
  0
VERTEX
  8
3D_Object
 10
511.46446609406723
 20
48.53553390593274
 30
0.0
  0
VERTEX
  8
3D_Object
 10
510.0
 20
50.0
 30
0.0
  0
SEQEND
  8
3D_Object
  0
LINE
  8
3D_Object
 62
18
 10
50.0
 20
390.0
 30
0.0
 11
510.0
 21
390.0
 31
0.0
  0
LINE
  8
3D_Object
 62
18
 10
50.0
 20
50.0
 30
0.0
 11
510.0
 21
50.0
 31
0.0
  0
ARC
  8
3D_Object
 62
18
 10
28.0
 20
28.0
 30
0.0
 40
8.0
 50
180.0
 51
-90.0
  0
POLYLINE
  8
3D_Object
 62
18
 70
0
 66
1
 10
0.0
 20
0.0
 30
0.0
  0
VERTEX
  8
3D_Object
 10
28.0
 20
23.0
 30
0.0
  0
VERTEX
  8
3D_Object
 10
28.0
 20
20.0
 30
0.0
  0
SEQEND
  8
3D_Object
  0
LINE
  8
3D_Object
 62
18
 10
28.0
 20
23.0
 30
0.0
 11
532.0
 21
23.0
 31
0.0
  0
POLYLINE
  8
3D_Object
 62
18
 70
0
 66
1
 10
0.0
 20
0.0
 30
0.0
  0
VERTEX
  8
3D_Object
 10
532.0
 20
23.0
 30
0.0
  0
VERTEX
  8
3D_Object
 10
532.0
 20
20.0
 30
0.0
  0
SEQEND
  8
3D_Object
  0
ARC
  8
3D_Object
 62
18
 10
532.0
 20
28.0
 30
0.0
 40
8.0
 50
-90.0
 51
0.0
  0
ARC
  8
3D_Object
 62
18
 10
28.0
 20
28.0
 30
0.0
 40
5.0
 50
180.0
 51
-90.0
  0
POLYLINE
  8
3D_Object
 62
18
 70
0
 66
1
 10
0.0
 20
0.0
 30
0.0
  0
VERTEX
  8
3D_Object
 10
23.0
 20
28.0
 30
0.0
  0
VERTEX
  8
3D_Object
 10
20.0
 20
28.0
 30
0.0
  0
SEQEND
  8
3D_Object
  0
ARC
  8
3D_Object
 62
18
 10
532.0
 20
28.0
 30
0.0
 40
5.0
 50
-90.0
 51
0.0
  0
LINE
  8
3D_Object
 62
18
 10
23.0
 20
412.0
 30
0.0
 11
23.0
 21
28.0
 31
0.0
  0
LINE
  8
3D_Object
 62
18
 10
537.0
 20
28.0
 30
0.0
 11
537.0
 21
412.0
 31
0.0
  0
ARC
  8
3D_Object
 62
18
 10
28.0
 20
412.0
 30
0.0
 40
5.0
 50
90.0
 51
-180.0
  0
ARC
  8
3D_Object
 62
18
 10
532.0
 20
412.0
 30
0.0
 40
5.0
 50
-0.0
 51
90.0
  0
LINE
  8
3D_Object
 62
18
 10
532.0
 20
417.0
 30
0.0
 11
28.0
 21
417.0
 31
0.0
  0
POLYLINE
  8
3D_Object
 62
18
 70
0
 66
1
 10
0.0
 20
0.0
 30
0.0
  0
VERTEX
  8
3D_Object
 10
537.0
 20
28.0
 30
0.0
  0
VERTEX
  8
3D_Object
 10
540.0
 20
28.0
 30
0.0
  0
SEQEND
  8
3D_Object
  0
POLYLINE
  8
3D_Object
 62
18
 70
0
 66
1
 10
0.0
 20
0.0
 30
0.0
  0
VERTEX
  8
3D_Object
 10
23.0
 20
412.0
 30
0.0
  0
VERTEX
  8
3D_Object
 10
20.0
 20
412.0
 30
0.0
  0
SEQEND
  8
3D_Object
  0
ARC
  8
3D_Object
 62
18
 10
28.0
 20
412.0
 30
0.0
 40
8.0
 50
90.0
 51
-180.0
  0
POLYLINE
  8
3D_Object
 62
18
 70
0
 66
1
 10
0.0
 20
0.0
 30
0.0
  0
VERTEX
  8
3D_Object
 10
537.0
 20
412.0
 30
0.0
  0
VERTEX
  8
3D_Object
 10
540.0
 20
412.0
 30
0.0
  0
SEQEND
  8
3D_Object
  0
POLYLINE
  8
3D_Object
 62
18
 70
0
 66
1
 10
0.0
 20
0.0
 30
0.0
  0
VERTEX
  8
3D_Object
 10
28.0
 20
417.0
 30
0.0
  0
VERTEX
  8
3D_Object
 10
28.0
 20
420.0
 30
0.0
  0
SEQEND
  8
3D_Object
  0
POLYLINE
  8
3D_Object
 62
18
 70
0
 66
1
 10
0.0
 20
0.0
 30
0.0
  0
VERTEX
  8
3D_Object
 10
532.0
 20
417.0
 30
0.0
  0
VERTEX
  8
3D_Object
 10
532.0
 20
420.0
 30
0.0
  0
SEQEND
  8
3D_Object
  0
LINE
  8
3D_Object
 62
18
 10
45.0
 20
395.0
 30
0.0
 11
515.0
 21
395.0
 31
0.0
  0
LINE
  8
3D_Object
 62
18
 10
45.0
 20
45.0
 30
0.0
 11
515.0
 21
45.0
 31
0.0
  0
ENDBLK
  0
ENDSEC
  0
SECTION
  2
ENTITIES
  0
INSERT
  2
CUT002
  8
3D_Object
 62
18
 10
0.0
 20
0.0
 30
0.0
  0
ENDSEC
  0
EOF
